<svg
        xmlns="http://www.w3.org/2000/svg"
        width="28px" height="21px" style="fill: #4675a3">


        <path fill-rule="evenodd"  opacity="0.902"
              d="M26.984,19.616 C26.512,20.062 25.944,20.286 25.281,20.286 L3.084,20.286 C2.421,20.286 1.853,20.062 1.380,19.616 C0.908,19.170 0.672,18.634 0.672,18.009 L0.672,6.712 C1.114,7.178 1.622,7.590 2.194,7.951 C5.834,10.282 8.332,11.919 9.689,12.859 C10.262,13.257 10.727,13.567 11.084,13.790 C11.440,14.014 11.916,14.242 12.508,14.472 C13.102,14.706 13.655,14.822 14.167,14.822 L14.182,14.822 L14.198,14.822 C14.711,14.822 15.263,14.706 15.856,14.472 C16.450,14.242 16.924,14.014 17.281,13.790 C17.638,13.567 18.103,13.257 18.676,12.859 C20.385,11.692 22.888,10.055 26.185,7.951 C26.758,7.581 27.261,7.167 27.693,6.712 L27.693,18.009 C27.693,18.634 27.457,19.170 26.984,19.616 ZM25.115,6.429 C21.335,8.905 18.982,10.445 18.058,11.050 C17.957,11.116 17.744,11.263 17.417,11.484 C17.090,11.710 16.819,11.890 16.603,12.026 C16.386,12.163 16.125,12.318 15.819,12.489 C15.512,12.659 15.223,12.788 14.952,12.872 C14.680,12.957 14.429,13.001 14.197,13.001 L14.182,13.001 L14.167,13.001 C13.936,13.001 13.685,12.957 13.413,12.872 C13.142,12.788 12.853,12.659 12.546,12.489 C12.239,12.318 11.978,12.163 11.762,12.026 C11.546,11.890 11.274,11.710 10.948,11.484 C10.621,11.263 10.408,11.116 10.307,11.050 C9.392,10.445 8.075,9.580 6.356,8.455 C4.637,7.332 3.607,6.655 3.265,6.429 C2.642,6.028 2.054,5.481 1.501,4.785 C0.948,4.087 0.672,3.440 0.672,2.843 C0.672,2.103 0.880,1.487 1.297,0.992 C1.714,0.501 2.310,0.253 3.084,0.253 L25.281,0.253 C25.934,0.253 26.499,0.476 26.977,0.921 C27.454,1.368 27.693,1.903 27.693,2.528 C27.693,3.279 27.447,3.995 26.954,4.679 C26.462,5.361 25.848,5.943 25.115,6.429 Z"/>

</svg>