<svg
        xmlns="http://www.w3.org/2000/svg"
        width="28px" height="28px" style="fill: #4675a3">

        <path fill-rule="evenodd"  opacity="0.902"
              d="M27.083,21.502 L22.911,17.318 C22.080,16.491 20.704,16.515 19.845,17.378 L17.743,19.484 C17.610,19.410 17.473,19.333 17.328,19.251 C16.001,18.515 14.184,17.504 12.273,15.587 C10.356,13.666 9.347,11.843 8.609,10.512 C8.531,10.371 8.457,10.235 8.383,10.106 L9.794,8.694 L10.487,7.999 C11.348,7.135 11.372,5.756 10.543,4.925 L6.371,0.744 C5.542,-0.087 4.165,-0.063 3.304,0.800 L2.128,1.987 L2.161,2.018 C1.767,2.521 1.437,3.104 1.192,3.730 C0.966,4.328 0.825,4.897 0.761,5.467 C0.210,10.045 2.297,14.227 7.960,19.903 C15.789,27.749 22.098,27.157 22.370,27.127 C22.963,27.057 23.531,26.913 24.108,26.689 C24.729,26.447 25.309,26.116 25.811,25.722 L25.837,25.746 L27.028,24.577 C27.888,23.712 27.912,22.334 27.083,21.502 Z"/>

</svg>