<svg
    xmlns="http://www.w3.org/2000/svg"
    width="25px" height="33px" style="fill: #4675a3">

    <path fill-rule="evenodd"  opacity="0.902" d="M12.690,0.004 C6.064,0.004 0.674,5.208 0.674,11.603 C0.674,19.539 11.427,31.191 11.885,31.684 C12.315,32.146 13.066,32.144 13.495,31.684 C13.953,31.191 24.707,19.539 24.707,11.603 C24.707,5.208 19.316,0.004 12.690,0.004 ZM12.690,17.437 C9.357,17.437 6.644,14.821 6.644,11.603 C6.644,8.384 9.357,5.767 12.690,5.767 C16.024,5.767 18.736,8.384 18.736,11.603 C18.736,14.821 16.024,17.437 12.690,17.437 Z"/>

</svg>