<svg
        xmlns="http://www.w3.org/2000/svg"
        width="10px" height="18px">
    <path fill-rule="evenodd"  fill="rgb(255, 255, 255)"
          d="M6.969,3.773 C6.954,3.826 6.926,3.844 6.895,3.881 C6.889,3.881 6.883,3.881 6.877,3.881 C6.870,3.906 6.864,3.930 6.858,3.954 C6.846,3.960 6.833,3.966 6.821,3.972 C6.821,3.991 6.821,4.009 6.821,4.027 C6.815,4.027 6.809,4.027 6.803,4.027 C6.803,4.039 6.803,4.051 6.803,4.063 C6.796,4.063 6.790,4.063 6.784,4.063 C6.778,4.106 6.772,4.148 6.766,4.190 C6.759,4.190 6.753,4.190 6.747,4.190 C6.747,4.214 6.747,4.239 6.747,4.263 C6.741,4.263 6.735,4.263 6.729,4.263 C6.722,4.396 6.716,4.529 6.710,4.663 C6.665,4.819 6.692,5.073 6.692,5.262 C6.692,5.661 6.692,6.061 6.692,6.461 C7.363,6.461 8.034,6.461 8.706,6.461 C8.934,6.461 9.333,6.426 9.518,6.479 C9.555,6.479 9.592,6.479 9.629,6.479 C9.629,6.485 9.629,6.491 9.629,6.497 C9.660,6.503 9.691,6.510 9.722,6.515 C9.722,6.521 9.722,6.528 9.722,6.533 C9.750,6.555 9.754,6.559 9.795,6.570 C9.807,6.611 9.811,6.615 9.832,6.643 C9.839,6.643 9.845,6.643 9.851,6.643 C9.857,6.673 9.863,6.703 9.869,6.733 C9.876,6.733 9.882,6.733 9.888,6.733 C9.888,7.472 9.888,8.211 9.888,8.950 C9.888,9.180 9.888,9.410 9.888,9.640 C9.888,9.741 9.903,9.895 9.869,9.967 C9.863,9.967 9.857,9.967 9.851,9.967 C9.851,9.979 9.851,9.991 9.851,10.003 C9.832,10.015 9.814,10.027 9.795,10.040 C9.789,10.058 9.783,10.076 9.777,10.094 C9.735,10.126 9.682,10.128 9.648,10.167 C8.698,10.189 7.672,10.184 6.692,10.185 C6.692,11.880 6.692,13.576 6.692,15.271 C6.692,16.095 6.692,16.918 6.692,17.741 C6.686,17.741 6.679,17.741 6.673,17.741 C6.667,17.772 6.661,17.802 6.655,17.832 C6.649,17.832 6.642,17.832 6.636,17.832 C6.615,17.860 6.611,17.864 6.599,17.905 C6.558,17.916 6.554,17.920 6.525,17.941 C6.525,17.947 6.525,17.954 6.525,17.959 C6.495,17.965 6.464,17.972 6.433,17.978 C6.433,17.984 6.433,17.990 6.433,17.996 C5.596,17.996 4.758,17.996 3.921,17.996 C3.705,17.996 3.489,17.996 3.274,17.996 C3.202,17.996 3.074,18.012 3.034,17.978 C2.966,17.963 2.925,17.930 2.886,17.887 C2.880,17.887 2.874,17.887 2.867,17.887 C2.867,17.875 2.867,17.863 2.867,17.850 C2.855,17.844 2.843,17.838 2.830,17.832 C2.759,17.721 2.775,17.522 2.775,17.342 C2.775,16.936 2.775,16.531 2.775,16.125 C2.775,14.145 2.775,12.165 2.775,10.185 C2.190,10.185 1.605,10.185 1.020,10.185 C0.826,10.185 0.387,10.221 0.244,10.167 C0.189,10.130 0.133,10.094 0.078,10.058 C0.046,10.015 0.043,9.964 0.004,9.930 C0.004,9.137 0.004,8.344 0.004,7.551 C0.004,7.351 0.004,7.151 0.004,6.951 C0.004,6.880 -0.013,6.755 0.022,6.715 C0.083,6.442 0.420,6.461 0.761,6.461 C1.433,6.461 2.104,6.461 2.775,6.461 C2.775,5.971 2.775,5.480 2.775,4.990 C2.775,4.772 2.742,4.443 2.794,4.263 C2.794,4.154 2.794,4.045 2.794,3.936 C2.800,3.936 2.806,3.936 2.812,3.936 C2.812,3.875 2.812,3.815 2.812,3.754 C2.818,3.754 2.824,3.754 2.830,3.754 C2.830,3.706 2.830,3.658 2.830,3.609 C2.837,3.609 2.843,3.609 2.849,3.609 C2.849,3.567 2.849,3.524 2.849,3.482 C2.855,3.482 2.861,3.482 2.867,3.482 C2.867,3.452 2.867,3.421 2.867,3.391 C2.874,3.391 2.880,3.391 2.886,3.391 C2.886,3.361 2.886,3.330 2.886,3.300 C2.892,3.300 2.898,3.300 2.904,3.300 C2.904,3.270 2.904,3.240 2.904,3.209 C2.911,3.209 2.917,3.209 2.923,3.209 C2.923,3.185 2.923,3.161 2.923,3.137 C2.929,3.137 2.935,3.137 2.941,3.137 C2.941,3.113 2.941,3.088 2.941,3.064 C2.948,3.064 2.954,3.064 2.960,3.064 C2.966,3.016 2.972,2.967 2.978,2.919 C2.984,2.919 2.991,2.919 2.997,2.919 C2.997,2.901 2.997,2.882 2.997,2.864 C3.003,2.864 3.009,2.864 3.015,2.864 C3.015,2.846 3.015,2.828 3.015,2.810 C3.021,2.810 3.028,2.810 3.034,2.810 C3.034,2.792 3.034,2.773 3.034,2.755 C3.040,2.755 3.046,2.755 3.052,2.755 C3.052,2.737 3.052,2.719 3.052,2.701 C3.058,2.701 3.064,2.701 3.071,2.701 C3.077,2.664 3.083,2.628 3.089,2.592 C3.095,2.592 3.101,2.592 3.108,2.592 C3.108,2.580 3.108,2.568 3.108,2.555 C3.114,2.555 3.120,2.555 3.126,2.555 C3.126,2.537 3.126,2.519 3.126,2.501 C3.132,2.501 3.138,2.501 3.145,2.501 C3.145,2.489 3.145,2.477 3.145,2.464 C3.151,2.464 3.157,2.464 3.163,2.464 C3.163,2.447 3.163,2.428 3.163,2.410 C3.169,2.410 3.175,2.410 3.182,2.410 C3.194,2.374 3.206,2.337 3.219,2.301 C3.225,2.301 3.231,2.301 3.237,2.301 C3.237,2.289 3.237,2.277 3.237,2.265 C3.243,2.265 3.249,2.265 3.255,2.265 C3.255,2.247 3.255,2.228 3.255,2.210 C3.262,2.210 3.268,2.210 3.274,2.210 C3.274,2.198 3.274,2.186 3.274,2.174 C3.280,2.174 3.286,2.174 3.292,2.174 C3.292,2.162 3.292,2.150 3.292,2.138 C3.305,2.131 3.317,2.126 3.329,2.119 C3.329,2.107 3.329,2.095 3.329,2.083 C3.335,2.083 3.342,2.083 3.348,2.083 C3.348,2.071 3.348,2.059 3.348,2.047 C3.354,2.047 3.360,2.047 3.366,2.047 C3.366,2.035 3.366,2.023 3.366,2.010 C3.372,2.010 3.379,2.010 3.385,2.010 C3.385,1.998 3.385,1.986 3.385,1.974 C3.397,1.968 3.409,1.962 3.422,1.956 C3.428,1.932 3.434,1.908 3.440,1.883 C3.446,1.883 3.452,1.883 3.459,1.883 C3.465,1.865 3.471,1.847 3.477,1.829 C3.489,1.823 3.502,1.817 3.514,1.811 C3.520,1.787 3.526,1.762 3.533,1.738 C3.551,1.726 3.570,1.714 3.588,1.702 C3.588,1.690 3.588,1.677 3.588,1.665 C3.600,1.659 3.613,1.653 3.625,1.647 C3.625,1.635 3.625,1.623 3.625,1.611 C3.643,1.599 3.662,1.587 3.680,1.575 C3.680,1.562 3.680,1.550 3.680,1.538 C3.705,1.520 3.730,1.502 3.754,1.484 C3.754,1.471 3.754,1.459 3.754,1.447 C3.791,1.417 3.828,1.387 3.865,1.356 C3.865,1.344 3.865,1.332 3.865,1.320 C3.902,1.290 3.939,1.260 3.976,1.229 C4.031,1.169 4.087,1.108 4.142,1.048 C4.155,1.048 4.167,1.048 4.179,1.048 C4.210,1.011 4.241,0.975 4.271,0.939 C4.284,0.939 4.296,0.939 4.308,0.939 C4.327,0.915 4.345,0.890 4.364,0.866 C4.376,0.866 4.389,0.866 4.401,0.866 C4.413,0.848 4.426,0.830 4.438,0.812 C4.450,0.812 4.462,0.812 4.475,0.812 C4.481,0.799 4.487,0.787 4.493,0.775 C4.506,0.775 4.518,0.775 4.530,0.775 C4.542,0.757 4.555,0.739 4.567,0.721 C4.579,0.721 4.592,0.721 4.604,0.721 C4.610,0.709 4.616,0.697 4.623,0.684 C4.647,0.678 4.672,0.672 4.696,0.666 C4.703,0.654 4.709,0.642 4.715,0.630 C4.740,0.624 4.764,0.618 4.789,0.612 C4.795,0.600 4.801,0.588 4.807,0.576 C4.820,0.576 4.832,0.576 4.844,0.576 C4.844,0.569 4.844,0.563 4.844,0.557 C4.857,0.557 4.869,0.557 4.881,0.557 C4.881,0.551 4.881,0.545 4.881,0.539 C4.893,0.539 4.906,0.539 4.918,0.539 C4.918,0.533 4.918,0.527 4.918,0.521 C4.930,0.521 4.943,0.521 4.955,0.521 C4.955,0.515 4.955,0.509 4.955,0.503 C4.967,0.503 4.980,0.503 4.992,0.503 C4.992,0.497 4.992,0.491 4.992,0.484 C5.004,0.484 5.017,0.484 5.029,0.484 C5.029,0.478 5.029,0.473 5.029,0.466 C5.041,0.466 5.054,0.466 5.066,0.466 C5.066,0.460 5.066,0.454 5.066,0.448 C5.078,0.448 5.091,0.448 5.103,0.448 C5.103,0.442 5.103,0.436 5.103,0.430 C5.140,0.418 5.177,0.406 5.214,0.394 C5.214,0.388 5.214,0.382 5.214,0.376 C5.232,0.376 5.251,0.376 5.269,0.376 C5.269,0.369 5.269,0.363 5.269,0.357 C5.281,0.357 5.294,0.357 5.306,0.357 C5.306,0.351 5.306,0.345 5.306,0.339 C5.325,0.339 5.343,0.339 5.362,0.339 C5.362,0.333 5.362,0.327 5.362,0.321 C5.374,0.321 5.386,0.321 5.399,0.321 C5.399,0.315 5.399,0.309 5.399,0.303 C5.435,0.297 5.472,0.291 5.509,0.285 C5.509,0.279 5.509,0.273 5.509,0.266 C5.522,0.266 5.534,0.266 5.546,0.266 C5.546,0.260 5.546,0.255 5.546,0.248 C5.565,0.248 5.583,0.248 5.602,0.248 C5.602,0.242 5.602,0.236 5.602,0.230 C5.626,0.230 5.651,0.230 5.676,0.230 C5.676,0.224 5.676,0.218 5.676,0.212 C5.694,0.212 5.713,0.212 5.731,0.212 C5.731,0.206 5.731,0.200 5.731,0.194 C5.750,0.194 5.768,0.194 5.786,0.194 C5.786,0.188 5.786,0.182 5.786,0.176 C5.811,0.176 5.836,0.176 5.860,0.176 C5.860,0.170 5.860,0.164 5.860,0.158 C5.910,0.152 5.959,0.145 6.008,0.139 C6.008,0.133 6.008,0.127 6.008,0.121 C6.039,0.121 6.070,0.121 6.100,0.121 C6.189,0.095 6.324,0.074 6.415,0.049 C6.464,0.049 6.513,0.049 6.562,0.049 C6.562,0.043 6.562,0.037 6.562,0.030 C6.624,0.030 6.686,0.030 6.747,0.030 C6.747,0.024 6.747,0.018 6.747,0.012 C7.449,0.012 8.151,0.012 8.853,0.012 C9.228,0.012 9.883,-0.075 9.962,0.212 C10.008,0.259 9.999,0.356 9.999,0.448 C9.999,0.630 9.999,0.812 9.999,0.993 C9.999,1.477 9.999,1.962 9.999,2.447 C9.999,2.743 10.010,3.095 9.962,3.336 C9.925,3.367 9.888,3.397 9.851,3.427 C9.851,3.433 9.851,3.439 9.851,3.445 C9.839,3.445 9.826,3.445 9.814,3.445 C9.814,3.452 9.814,3.458 9.814,3.464 C9.802,3.464 9.789,3.464 9.777,3.464 C9.777,3.470 9.777,3.476 9.777,3.482 C9.758,3.482 9.740,3.482 9.722,3.482 C9.722,3.488 9.722,3.494 9.722,3.500 C9.087,3.500 8.453,3.500 7.819,3.500 C7.819,3.506 7.819,3.512 7.819,3.518 C7.751,3.518 7.683,3.518 7.615,3.518 C7.615,3.524 7.615,3.530 7.615,3.536 C7.578,3.536 7.542,3.536 7.505,3.536 C7.505,3.542 7.505,3.549 7.505,3.555 C7.474,3.555 7.443,3.555 7.412,3.555 C7.412,3.560 7.412,3.567 7.412,3.573 C7.388,3.573 7.363,3.573 7.338,3.573 C7.338,3.579 7.338,3.585 7.338,3.591 C7.320,3.591 7.301,3.591 7.283,3.591 C7.283,3.597 7.283,3.603 7.283,3.609 C7.271,3.609 7.258,3.609 7.246,3.609 C7.246,3.615 7.246,3.621 7.246,3.627 C7.215,3.633 7.184,3.639 7.154,3.645 C7.147,3.658 7.141,3.670 7.135,3.682 C7.110,3.688 7.086,3.694 7.061,3.700 C7.061,3.706 7.061,3.712 7.061,3.718 C7.028,3.744 7.017,3.759 6.969,3.773 Z"/>
</svg>
