<svg
        xmlns="http://www.w3.org/2000/svg"
        width="20px" height="18px">
    <path fill-rule="evenodd"  fill="rgb(255, 255, 255)"
          d="M6.126,0.002 C7.997,0.002 9.869,0.002 11.741,0.002 C12.288,0.002 12.835,0.002 13.382,0.002 C13.701,0.002 14.035,-0.014 14.302,0.047 C14.410,0.072 14.500,0.057 14.603,0.084 C14.782,0.126 14.961,0.169 15.141,0.212 C15.634,0.376 16.087,0.568 16.490,0.823 C16.686,0.947 16.870,1.095 17.055,1.234 C17.130,1.290 17.190,1.378 17.265,1.435 C17.373,1.517 17.474,1.618 17.556,1.726 C17.613,1.801 17.700,1.861 17.757,1.936 C18.096,2.389 18.398,2.859 18.632,3.424 C18.755,3.723 18.819,4.055 18.905,4.391 C18.932,4.495 18.917,4.585 18.942,4.692 C18.960,4.772 18.960,4.883 18.978,4.966 C18.978,5.018 18.978,5.070 18.978,5.121 C19.006,5.247 18.987,5.426 18.987,5.569 C18.987,5.864 18.987,6.159 18.987,6.454 C18.987,7.701 18.987,8.948 18.987,10.195 C18.987,10.849 18.987,11.503 18.987,12.157 C18.987,12.375 19.021,12.684 18.978,12.878 C18.975,12.966 18.972,13.055 18.969,13.143 C18.944,13.256 18.953,13.382 18.924,13.499 C18.858,13.761 18.823,14.021 18.741,14.265 C18.289,15.621 17.445,16.588 16.326,17.277 C15.886,17.547 15.376,17.714 14.822,17.870 C14.632,17.924 14.426,17.926 14.229,17.970 C14.111,17.976 13.992,17.983 13.874,17.989 C13.792,18.006 13.670,17.998 13.573,17.998 C13.385,17.998 13.196,17.998 13.008,17.998 C12.215,17.998 11.422,17.998 10.629,17.998 C9.638,17.998 8.648,17.998 7.657,17.998 C7.271,17.998 6.886,17.998 6.500,17.998 C6.219,17.998 5.932,18.007 5.697,17.952 C5.590,17.927 5.500,17.942 5.397,17.916 C4.937,17.797 4.522,17.687 4.130,17.514 C3.878,17.403 3.638,17.250 3.419,17.103 C2.496,16.487 1.818,15.665 1.368,14.576 C1.244,14.276 1.180,13.944 1.094,13.608 C1.068,13.505 1.083,13.415 1.058,13.307 C0.964,12.896 1.012,12.252 1.012,11.765 C1.012,10.688 1.012,9.611 1.012,8.534 C1.012,7.701 1.012,6.867 1.012,6.034 C1.012,5.213 1.019,4.464 1.222,3.853 C1.773,2.196 2.802,1.061 4.339,0.394 C4.697,0.239 5.090,0.169 5.506,0.066 C5.661,0.047 5.816,0.029 5.971,0.011 C6.020,-0.000 6.090,0.024 6.126,0.002 ZM6.336,1.809 C6.259,1.853 6.098,1.806 6.007,1.827 C5.770,1.881 5.538,1.893 5.324,1.964 C4.460,2.252 3.801,2.772 3.355,3.479 C3.174,3.765 3.050,4.092 2.936,4.446 C2.908,4.580 2.881,4.714 2.854,4.848 C2.844,4.954 2.835,5.060 2.826,5.167 C2.826,5.222 2.826,5.277 2.826,5.331 C2.794,5.479 2.817,5.687 2.817,5.852 C2.817,6.192 2.817,6.533 2.817,6.874 C2.817,8.251 2.817,9.630 2.817,11.007 C2.817,11.376 2.817,11.744 2.817,12.112 C2.817,12.287 2.791,12.511 2.826,12.668 C2.826,12.723 2.826,12.778 2.826,12.833 C2.835,12.939 2.844,13.046 2.854,13.152 C2.896,13.330 2.916,13.514 2.972,13.681 C3.095,14.052 3.260,14.393 3.464,14.685 C3.949,15.378 4.639,15.840 5.561,16.100 C6.076,16.245 6.843,16.191 7.484,16.191 C8.645,16.191 9.805,16.191 10.966,16.191 C11.659,16.191 12.352,16.191 13.044,16.191 C13.340,16.191 13.740,16.221 13.992,16.164 C14.062,16.157 14.132,16.151 14.202,16.145 C14.360,16.107 14.525,16.086 14.676,16.036 C15.047,15.912 15.386,15.748 15.679,15.543 C16.210,15.170 16.636,14.641 16.909,14.010 C17.269,13.178 17.183,11.904 17.183,10.715 C17.183,9.487 17.183,8.257 17.183,7.029 C17.183,6.579 17.183,6.128 17.183,5.678 C17.183,5.493 17.201,5.265 17.164,5.103 C17.161,5.042 17.158,4.981 17.155,4.921 C17.092,4.652 17.069,4.388 16.973,4.154 C16.849,3.852 16.711,3.566 16.535,3.314 C16.493,3.254 16.433,3.199 16.389,3.141 C16.305,3.028 16.190,2.869 16.080,2.785 C15.891,2.642 15.719,2.476 15.514,2.347 C15.201,2.149 14.839,2.013 14.439,1.900 C14.096,1.803 13.674,1.809 13.245,1.809 C12.731,1.809 12.218,1.809 11.704,1.809 C9.915,1.809 8.125,1.809 6.336,1.809 ZM14.521,3.269 C14.652,3.267 14.796,3.257 14.904,3.287 C15.328,3.405 15.592,3.659 15.724,4.072 C15.762,4.191 15.800,4.413 15.761,4.574 C15.740,4.656 15.720,4.745 15.688,4.820 C15.536,5.170 15.247,5.390 14.840,5.486 C14.631,5.536 14.386,5.472 14.247,5.413 C13.900,5.266 13.697,5.038 13.582,4.656 C13.549,4.545 13.519,4.335 13.555,4.191 C13.576,4.115 13.597,4.039 13.619,3.962 C13.727,3.702 13.936,3.472 14.193,3.360 C14.266,3.336 14.339,3.311 14.412,3.287 C14.449,3.277 14.493,3.287 14.521,3.269 ZM9.772,4.346 C11.024,4.323 11.903,4.660 12.625,5.167 C13.376,5.695 13.920,6.348 14.302,7.248 C14.407,7.493 14.478,7.770 14.557,8.051 C14.582,8.209 14.606,8.367 14.630,8.525 C14.633,8.607 14.636,8.690 14.639,8.772 C14.664,8.887 14.665,9.113 14.639,9.228 C14.639,9.277 14.639,9.325 14.639,9.374 C14.617,9.474 14.629,9.588 14.603,9.693 C14.507,10.082 14.446,10.447 14.302,10.779 C13.871,11.775 13.199,12.500 12.315,13.042 C12.071,13.192 11.789,13.294 11.513,13.407 C11.244,13.519 10.935,13.544 10.629,13.617 C10.499,13.649 10.356,13.625 10.228,13.654 C10.176,13.654 10.124,13.654 10.073,13.654 C9.921,13.654 9.755,13.665 9.626,13.636 C9.464,13.599 9.297,13.621 9.143,13.581 C8.768,13.483 8.440,13.392 8.122,13.253 C7.072,12.792 6.213,11.955 5.752,10.907 C5.649,10.673 5.586,10.441 5.506,10.177 C5.449,9.987 5.428,9.767 5.379,9.557 C5.353,9.447 5.385,9.343 5.360,9.228 C5.336,9.113 5.334,8.887 5.360,8.772 C5.389,8.643 5.358,8.495 5.388,8.370 C5.460,8.064 5.486,7.755 5.597,7.485 C5.711,7.209 5.813,6.927 5.962,6.682 C6.502,5.796 7.229,5.124 8.222,4.692 C8.522,4.562 8.852,4.497 9.198,4.410 C9.340,4.391 9.483,4.373 9.626,4.355 C9.673,4.344 9.738,4.367 9.772,4.346 ZM9.945,6.152 C9.830,6.162 9.714,6.171 9.599,6.180 C9.398,6.229 9.194,6.252 9.015,6.326 C8.206,6.660 7.663,7.204 7.329,8.014 C7.262,8.178 7.238,8.363 7.192,8.543 C7.105,8.887 7.173,9.470 7.265,9.748 C7.310,9.883 7.331,10.000 7.384,10.122 C7.667,10.771 8.158,11.289 8.806,11.573 C8.973,11.647 9.158,11.719 9.353,11.774 C9.460,11.805 9.556,11.794 9.672,11.820 C9.734,11.834 9.982,11.863 10.054,11.847 C10.135,11.829 10.242,11.849 10.328,11.829 C10.506,11.788 10.684,11.774 10.848,11.719 C11.672,11.444 12.282,10.887 12.616,10.122 C12.890,9.494 12.906,8.590 12.634,7.950 C12.212,6.959 11.347,6.156 9.945,6.152 Z"/>
</svg>
