<svg
        xmlns="http://www.w3.org/2000/svg"
        width="18px" height="15px">
    <path fill-rule="evenodd"  fill="rgb(255, 255, 255)"
          d="M6.763,14.070 C6.763,14.061 6.763,14.052 6.763,14.043 C6.766,14.043 6.769,14.043 6.772,14.043 C6.772,14.001 6.772,13.959 6.772,13.917 C6.775,13.917 6.778,13.917 6.781,13.917 C6.781,13.875 6.781,13.833 6.781,13.791 C6.784,13.791 6.787,13.791 6.790,13.791 C6.790,13.760 6.790,13.730 6.790,13.700 C6.790,13.688 6.790,13.676 6.790,13.664 C6.793,13.664 6.796,13.664 6.799,13.664 C6.799,13.622 6.799,13.580 6.799,13.538 C6.802,13.538 6.805,13.538 6.808,13.538 C6.808,13.508 6.808,13.477 6.808,13.447 C6.808,13.435 6.808,13.423 6.808,13.411 C6.811,13.411 6.814,13.411 6.817,13.411 C6.817,13.369 6.817,13.327 6.817,13.285 C6.820,13.285 6.823,13.285 6.826,13.285 C6.826,13.243 6.826,13.200 6.826,13.158 C6.829,13.158 6.833,13.158 6.835,13.158 C6.835,13.116 6.835,13.074 6.835,13.032 C6.838,13.032 6.842,13.032 6.845,13.032 C6.845,13.020 6.845,13.008 6.845,12.996 C6.845,12.966 6.845,12.936 6.845,12.906 C6.847,12.906 6.851,12.906 6.854,12.906 C6.854,12.864 6.854,12.821 6.854,12.779 C6.857,12.779 6.860,12.779 6.863,12.779 C6.863,12.737 6.863,12.695 6.863,12.653 C6.866,12.653 6.869,12.653 6.872,12.653 C6.872,12.608 6.872,12.562 6.872,12.518 C6.875,12.518 6.878,12.518 6.881,12.518 C6.881,12.505 6.881,12.493 6.881,12.481 C6.881,12.451 6.881,12.421 6.881,12.391 C6.884,12.391 6.887,12.391 6.890,12.391 C6.890,12.349 6.890,12.307 6.890,12.265 C6.893,12.265 6.896,12.265 6.899,12.265 C6.917,11.970 6.935,11.675 6.953,11.380 C6.956,11.380 6.959,11.380 6.962,11.380 C6.962,11.337 6.962,11.295 6.962,11.253 C6.965,11.253 6.968,11.253 6.971,11.253 C6.971,11.241 6.971,11.229 6.971,11.217 C6.971,11.187 6.971,11.157 6.971,11.127 C6.974,11.127 6.977,11.127 6.980,11.127 C6.980,11.082 6.980,11.037 6.980,10.992 C6.983,10.992 6.986,10.992 6.989,10.992 C6.989,10.949 6.989,10.907 6.989,10.865 C6.992,10.865 6.995,10.865 6.998,10.865 C6.998,10.823 6.998,10.781 6.998,10.739 C7.001,10.739 7.004,10.739 7.007,10.739 C7.007,10.727 7.007,10.715 7.007,10.703 C7.007,10.672 7.007,10.642 7.007,10.612 C7.010,10.612 7.013,10.612 7.016,10.612 C7.016,10.570 7.016,10.528 7.016,10.486 C7.019,10.486 7.022,10.486 7.025,10.486 C7.025,10.444 7.025,10.402 7.025,10.359 C7.028,10.359 7.031,10.359 7.034,10.359 C7.034,10.347 7.034,10.335 7.034,10.323 C7.034,10.293 7.034,10.263 7.034,10.233 C7.037,10.233 7.040,10.233 7.043,10.233 C7.043,10.191 7.043,10.149 7.043,10.107 C7.046,10.107 7.049,10.107 7.052,10.107 C7.055,10.031 7.058,9.956 7.061,9.881 C7.067,9.881 7.073,9.881 7.079,9.881 C7.104,9.854 7.128,9.827 7.152,9.800 C7.158,9.800 7.164,9.800 7.170,9.800 C7.194,9.773 7.218,9.745 7.242,9.718 C7.248,9.718 7.254,9.718 7.260,9.718 C7.284,9.691 7.308,9.664 7.332,9.637 C7.465,9.541 7.570,9.417 7.703,9.321 C7.721,9.300 7.739,9.279 7.757,9.258 C7.760,9.258 7.763,9.258 7.766,9.258 C7.769,9.252 7.772,9.246 7.775,9.240 C7.781,9.240 7.787,9.240 7.793,9.240 C7.817,9.213 7.841,9.186 7.866,9.159 C7.872,9.159 7.878,9.159 7.884,9.159 C7.908,9.131 7.932,9.104 7.956,9.077 C7.962,9.077 7.968,9.077 7.974,9.077 C7.998,9.050 8.022,9.023 8.046,8.996 C8.052,8.996 8.058,8.996 8.064,8.996 C8.088,8.969 8.113,8.942 8.137,8.915 C8.270,8.819 8.374,8.695 8.507,8.599 C8.531,8.572 8.555,8.545 8.579,8.518 C8.585,8.518 8.591,8.518 8.597,8.518 C8.622,8.490 8.646,8.463 8.670,8.436 C8.676,8.436 8.682,8.436 8.688,8.436 C8.712,8.409 8.736,8.382 8.760,8.355 C8.766,8.355 8.772,8.355 8.778,8.355 C8.802,8.328 8.826,8.301 8.850,8.274 C8.857,8.274 8.863,8.274 8.869,8.274 C8.893,8.247 8.917,8.219 8.941,8.193 C8.947,8.193 8.953,8.193 8.959,8.193 C8.968,8.181 8.977,8.168 8.986,8.156 C8.998,8.147 9.010,8.138 9.022,8.129 C9.025,8.123 9.028,8.117 9.031,8.111 C9.037,8.111 9.043,8.111 9.049,8.111 C9.073,8.084 9.097,8.057 9.122,8.030 C9.128,8.030 9.134,8.030 9.140,8.030 C9.164,8.003 9.188,7.976 9.212,7.949 C9.218,7.949 9.224,7.949 9.230,7.949 C9.251,7.925 9.272,7.901 9.293,7.876 C9.299,7.876 9.305,7.876 9.311,7.876 C9.335,7.849 9.359,7.822 9.384,7.795 C9.390,7.795 9.396,7.795 9.402,7.795 C9.426,7.768 9.450,7.741 9.474,7.714 C9.480,7.714 9.486,7.714 9.492,7.714 C9.516,7.687 9.540,7.660 9.564,7.633 C9.570,7.633 9.576,7.633 9.582,7.633 C9.591,7.621 9.600,7.608 9.610,7.597 C9.622,7.588 9.634,7.579 9.646,7.570 C9.649,7.564 9.652,7.557 9.655,7.551 C9.661,7.551 9.667,7.551 9.673,7.551 C9.697,7.524 9.721,7.497 9.745,7.470 C9.751,7.470 9.757,7.470 9.763,7.470 C9.787,7.443 9.811,7.416 9.835,7.389 C9.841,7.389 9.847,7.389 9.853,7.389 C9.878,7.362 9.902,7.335 9.926,7.308 C9.932,7.308 9.938,7.308 9.944,7.308 C9.968,7.281 9.992,7.253 10.016,7.226 C10.022,7.226 10.028,7.226 10.034,7.226 C10.043,7.214 10.052,7.202 10.061,7.190 C10.073,7.181 10.085,7.172 10.097,7.163 C10.097,7.160 10.097,7.157 10.097,7.154 C10.103,7.154 10.110,7.154 10.115,7.154 C10.140,7.127 10.164,7.100 10.188,7.073 C10.194,7.073 10.200,7.073 10.206,7.073 C10.230,7.046 10.254,7.019 10.278,6.992 C10.284,6.992 10.290,6.992 10.296,6.992 C10.320,6.965 10.344,6.937 10.368,6.910 C10.375,6.910 10.381,6.910 10.387,6.910 C10.411,6.883 10.435,6.856 10.459,6.829 C10.465,6.829 10.471,6.829 10.477,6.829 C10.501,6.802 10.525,6.775 10.549,6.748 C10.555,6.748 10.561,6.748 10.567,6.748 C10.591,6.721 10.615,6.694 10.640,6.666 C10.646,6.666 10.652,6.666 10.658,6.666 C10.682,6.639 10.706,6.612 10.730,6.585 C10.736,6.585 10.742,6.585 10.748,6.585 C10.772,6.558 10.796,6.531 10.820,6.504 C10.826,6.504 10.832,6.504 10.838,6.504 C10.859,6.480 10.881,6.456 10.902,6.432 C10.908,6.432 10.914,6.432 10.920,6.432 C10.944,6.405 10.968,6.378 10.992,6.351 C10.998,6.351 11.004,6.351 11.010,6.351 C11.034,6.324 11.058,6.296 11.082,6.269 C11.088,6.269 11.094,6.269 11.100,6.269 C11.124,6.242 11.149,6.215 11.173,6.188 C11.179,6.188 11.185,6.188 11.191,6.188 C11.215,6.161 11.239,6.134 11.263,6.107 C11.269,6.107 11.275,6.107 11.281,6.107 C11.305,6.080 11.329,6.053 11.353,6.025 C11.486,5.929 11.591,5.806 11.724,5.710 C11.748,5.682 11.772,5.655 11.796,5.628 C11.802,5.628 11.808,5.628 11.814,5.628 C11.838,5.601 11.862,5.574 11.887,5.547 C11.893,5.547 11.899,5.547 11.905,5.547 C11.929,5.520 11.953,5.493 11.977,5.466 C11.983,5.466 11.989,5.466 11.995,5.466 C12.019,5.439 12.043,5.411 12.067,5.385 C12.073,5.385 12.079,5.385 12.085,5.385 C12.109,5.357 12.134,5.330 12.158,5.303 C12.164,5.303 12.170,5.303 12.176,5.303 C12.200,5.276 12.224,5.249 12.248,5.222 C12.254,5.222 12.260,5.222 12.266,5.222 C12.275,5.210 12.284,5.198 12.293,5.186 C12.305,5.177 12.317,5.168 12.329,5.159 C12.332,5.153 12.335,5.147 12.338,5.141 C12.344,5.141 12.350,5.141 12.356,5.141 C12.380,5.114 12.405,5.087 12.429,5.059 C12.435,5.059 12.441,5.059 12.447,5.059 C12.471,5.032 12.495,5.005 12.519,4.978 C12.525,4.978 12.531,4.978 12.537,4.978 C12.558,4.954 12.579,4.930 12.600,4.906 C12.606,4.906 12.612,4.906 12.618,4.906 C12.643,4.879 12.667,4.852 12.691,4.825 C12.697,4.825 12.703,4.825 12.709,4.825 C12.733,4.797 12.757,4.771 12.781,4.743 C12.787,4.743 12.793,4.743 12.799,4.743 C12.823,4.716 12.847,4.689 12.871,4.662 C12.878,4.662 12.883,4.662 12.890,4.662 C12.914,4.635 12.938,4.608 12.962,4.581 C12.968,4.581 12.974,4.581 12.980,4.581 C12.989,4.569 12.998,4.557 13.007,4.545 C13.019,4.536 13.031,4.527 13.043,4.518 C13.046,4.512 13.049,4.506 13.052,4.500 C13.058,4.500 13.064,4.500 13.070,4.500 C13.094,4.472 13.118,4.445 13.143,4.418 C13.148,4.418 13.155,4.418 13.161,4.418 C13.185,4.391 13.209,4.364 13.233,4.337 C13.239,4.337 13.245,4.337 13.251,4.337 C13.275,4.310 13.299,4.283 13.323,4.256 C13.329,4.256 13.335,4.256 13.341,4.256 C13.362,4.232 13.383,4.208 13.405,4.184 C13.411,4.184 13.417,4.184 13.423,4.184 C13.447,4.156 13.471,4.129 13.495,4.102 C13.501,4.102 13.507,4.102 13.513,4.102 C13.537,4.075 13.561,4.048 13.585,4.021 C13.591,4.021 13.597,4.021 13.603,4.021 C13.627,3.994 13.652,3.967 13.676,3.940 C13.682,3.940 13.688,3.940 13.694,3.940 C13.718,3.913 13.742,3.886 13.766,3.859 C13.772,3.859 13.778,3.859 13.784,3.859 C13.808,3.831 13.832,3.804 13.856,3.777 C13.862,3.777 13.868,3.777 13.874,3.777 C13.899,3.750 13.923,3.723 13.947,3.696 C13.953,3.696 13.959,3.696 13.965,3.696 C13.989,3.669 14.013,3.642 14.037,3.615 C14.043,3.615 14.049,3.615 14.055,3.615 C14.079,3.588 14.103,3.561 14.127,3.534 C14.133,3.534 14.139,3.534 14.146,3.534 C14.167,3.510 14.188,3.485 14.209,3.461 C14.215,3.461 14.221,3.461 14.227,3.461 C14.251,3.434 14.275,3.407 14.299,3.380 C14.305,3.380 14.311,3.380 14.317,3.380 C14.341,3.353 14.365,3.326 14.389,3.299 C14.395,3.299 14.402,3.299 14.408,3.299 C14.432,3.272 14.456,3.245 14.480,3.217 C14.486,3.217 14.492,3.217 14.498,3.217 C14.522,3.190 14.546,3.163 14.570,3.136 C14.576,3.136 14.582,3.136 14.588,3.136 C14.612,3.109 14.636,3.082 14.660,3.055 C14.667,3.055 14.673,3.055 14.679,3.055 C14.688,3.043 14.697,3.031 14.706,3.019 C14.744,2.981 14.794,2.947 14.823,2.902 C14.826,2.889 14.829,2.877 14.832,2.865 C14.835,2.865 14.838,2.865 14.841,2.865 C14.841,2.859 14.841,2.853 14.841,2.847 C14.844,2.847 14.847,2.847 14.850,2.847 C14.862,2.815 14.845,2.770 14.841,2.748 C14.832,2.742 14.823,2.736 14.814,2.730 C14.814,2.727 14.814,2.724 14.814,2.721 C14.808,2.721 14.802,2.721 14.796,2.721 C14.793,2.715 14.790,2.709 14.787,2.703 C14.769,2.700 14.751,2.697 14.733,2.694 C14.733,2.691 14.733,2.688 14.733,2.685 C14.681,2.669 14.556,2.693 14.525,2.703 C14.486,2.712 14.447,2.721 14.408,2.730 C14.408,2.733 14.408,2.736 14.408,2.739 C14.395,2.742 14.383,2.745 14.371,2.748 C14.371,2.751 14.371,2.754 14.371,2.757 C14.344,2.766 14.317,2.775 14.290,2.784 C14.287,2.790 14.284,2.796 14.281,2.802 C14.269,2.805 14.257,2.808 14.245,2.811 C14.245,2.814 14.245,2.817 14.245,2.820 C14.236,2.823 14.227,2.826 14.218,2.829 C14.215,2.835 14.212,2.841 14.209,2.847 C14.197,2.850 14.185,2.853 14.173,2.856 C14.173,2.859 14.173,2.862 14.173,2.865 C14.164,2.868 14.155,2.871 14.146,2.874 C14.142,2.880 14.139,2.886 14.136,2.893 C14.124,2.896 14.112,2.899 14.100,2.902 C14.100,2.905 14.100,2.908 14.100,2.911 C14.091,2.914 14.082,2.917 14.073,2.920 C14.070,2.926 14.067,2.931 14.064,2.937 C14.052,2.940 14.040,2.944 14.028,2.947 C14.025,2.953 14.022,2.959 14.019,2.965 C14.013,2.965 14.007,2.965 14.001,2.965 C13.998,2.971 13.995,2.977 13.992,2.983 C13.980,2.986 13.968,2.989 13.956,2.992 C13.953,2.998 13.950,3.004 13.947,3.010 C13.941,3.010 13.935,3.010 13.929,3.010 C13.926,3.016 13.923,3.022 13.920,3.028 C13.908,3.031 13.895,3.034 13.883,3.037 C13.883,3.040 13.883,3.043 13.883,3.046 C13.874,3.049 13.865,3.052 13.856,3.055 C13.853,3.061 13.850,3.067 13.847,3.073 C13.835,3.076 13.823,3.079 13.811,3.082 C13.808,3.088 13.805,3.094 13.802,3.100 C13.796,3.100 13.790,3.100 13.784,3.100 C13.781,3.106 13.778,3.112 13.775,3.118 C13.769,3.118 13.763,3.118 13.757,3.118 C13.754,3.124 13.751,3.130 13.748,3.136 C13.736,3.139 13.724,3.142 13.712,3.145 C13.709,3.151 13.706,3.157 13.703,3.163 C13.697,3.163 13.691,3.163 13.685,3.163 C13.682,3.169 13.679,3.175 13.676,3.181 C13.664,3.184 13.651,3.187 13.639,3.190 C13.636,3.196 13.633,3.202 13.630,3.208 C13.624,3.208 13.618,3.208 13.612,3.208 C13.609,3.214 13.606,3.220 13.603,3.227 C13.591,3.230 13.579,3.233 13.567,3.236 C13.567,3.239 13.567,3.242 13.567,3.245 C13.558,3.248 13.549,3.251 13.540,3.254 C13.537,3.260 13.534,3.266 13.531,3.272 C13.519,3.275 13.507,3.278 13.495,3.281 C13.495,3.284 13.495,3.287 13.495,3.290 C13.486,3.293 13.477,3.296 13.468,3.299 C13.465,3.305 13.462,3.311 13.459,3.317 C13.447,3.320 13.435,3.323 13.423,3.326 C13.420,3.332 13.417,3.338 13.414,3.344 C13.408,3.344 13.402,3.344 13.395,3.344 C13.392,3.350 13.390,3.356 13.386,3.362 C13.374,3.365 13.362,3.368 13.350,3.371 C13.350,3.374 13.350,3.377 13.350,3.380 C13.341,3.383 13.332,3.386 13.323,3.389 C13.320,3.395 13.317,3.401 13.314,3.407 C13.302,3.410 13.290,3.413 13.278,3.416 C13.278,3.419 13.278,3.422 13.278,3.425 C13.269,3.428 13.260,3.431 13.251,3.434 C13.248,3.440 13.245,3.446 13.242,3.452 C13.236,3.452 13.230,3.452 13.224,3.452 C13.224,3.455 13.224,3.458 13.224,3.461 C13.218,3.461 13.212,3.461 13.206,3.461 C13.203,3.467 13.200,3.473 13.197,3.479 C13.191,3.479 13.185,3.479 13.179,3.479 C13.176,3.485 13.173,3.491 13.170,3.497 C13.158,3.500 13.146,3.504 13.134,3.507 C13.134,3.510 13.134,3.513 13.134,3.516 C13.124,3.519 13.115,3.522 13.106,3.525 C13.103,3.531 13.100,3.537 13.097,3.542 C13.091,3.542 13.085,3.542 13.079,3.542 C13.079,3.545 13.079,3.548 13.079,3.551 C13.073,3.551 13.067,3.551 13.061,3.551 C13.058,3.558 13.055,3.564 13.052,3.570 C13.046,3.570 13.040,3.570 13.034,3.570 C13.031,3.576 13.028,3.582 13.025,3.588 C13.013,3.591 13.001,3.594 12.989,3.597 C12.986,3.603 12.983,3.609 12.980,3.615 C12.974,3.615 12.968,3.615 12.962,3.615 C12.959,3.621 12.956,3.627 12.953,3.633 C12.944,3.636 12.935,3.639 12.926,3.642 C12.926,3.645 12.926,3.648 12.926,3.651 C12.914,3.654 12.902,3.657 12.890,3.660 C12.890,3.663 12.890,3.666 12.890,3.669 C12.880,3.672 12.871,3.675 12.862,3.678 C12.859,3.684 12.856,3.690 12.853,3.696 C12.841,3.699 12.829,3.702 12.817,3.705 C12.817,3.708 12.817,3.711 12.817,3.714 C12.808,3.717 12.799,3.720 12.790,3.723 C12.787,3.729 12.784,3.735 12.781,3.741 C12.769,3.744 12.757,3.747 12.745,3.750 C12.745,3.753 12.745,3.756 12.745,3.759 C12.736,3.762 12.727,3.765 12.718,3.768 C12.715,3.774 12.712,3.780 12.709,3.786 C12.697,3.789 12.685,3.792 12.673,3.795 C12.670,3.801 12.667,3.807 12.664,3.813 C12.658,3.813 12.652,3.813 12.646,3.813 C12.643,3.819 12.639,3.825 12.636,3.831 C12.624,3.834 12.612,3.838 12.600,3.841 C12.597,3.847 12.594,3.853 12.591,3.859 C12.585,3.859 12.579,3.859 12.573,3.859 C12.570,3.865 12.567,3.871 12.564,3.877 C12.552,3.880 12.540,3.883 12.528,3.886 C12.528,3.889 12.528,3.892 12.528,3.895 C12.519,3.898 12.510,3.901 12.501,3.904 C12.498,3.910 12.495,3.916 12.492,3.922 C12.486,3.922 12.480,3.922 12.474,3.922 C12.474,3.925 12.474,3.928 12.474,3.931 C12.468,3.931 12.462,3.931 12.456,3.931 C12.453,3.937 12.450,3.943 12.447,3.949 C12.441,3.949 12.435,3.949 12.429,3.949 C12.426,3.955 12.423,3.961 12.420,3.967 C12.408,3.970 12.396,3.973 12.383,3.976 C12.383,3.979 12.383,3.982 12.383,3.985 C12.374,3.988 12.365,3.991 12.356,3.994 C12.353,4.000 12.350,4.006 12.347,4.012 C12.341,4.012 12.335,4.012 12.329,4.012 C12.329,4.015 12.329,4.018 12.329,4.021 C12.323,4.021 12.317,4.021 12.311,4.021 C12.308,4.027 12.305,4.033 12.302,4.039 C12.296,4.039 12.290,4.039 12.284,4.039 C12.281,4.045 12.278,4.051 12.275,4.057 C12.263,4.060 12.251,4.063 12.239,4.066 C12.239,4.069 12.239,4.072 12.239,4.075 C12.230,4.078 12.221,4.081 12.212,4.084 C12.209,4.090 12.206,4.096 12.203,4.102 C12.191,4.105 12.179,4.108 12.167,4.111 C12.164,4.118 12.161,4.124 12.158,4.129 C12.152,4.129 12.146,4.129 12.139,4.129 C12.136,4.135 12.134,4.142 12.130,4.148 C12.124,4.148 12.118,4.148 12.112,4.148 C12.109,4.154 12.106,4.159 12.103,4.165 C12.097,4.165 12.091,4.165 12.085,4.165 C12.085,4.169 12.085,4.172 12.085,4.175 C12.079,4.175 12.073,4.175 12.067,4.175 C12.064,4.181 12.061,4.187 12.058,4.193 C12.052,4.193 12.046,4.193 12.040,4.193 C12.037,4.199 12.034,4.205 12.031,4.211 C12.019,4.214 12.007,4.217 11.995,4.220 C11.995,4.223 11.995,4.226 11.995,4.229 C11.986,4.232 11.977,4.235 11.968,4.238 C11.965,4.244 11.962,4.250 11.959,4.256 C11.953,4.256 11.947,4.256 11.941,4.256 C11.941,4.259 11.941,4.262 11.941,4.265 C11.935,4.265 11.929,4.265 11.923,4.265 C11.920,4.271 11.917,4.277 11.914,4.283 C11.908,4.283 11.902,4.283 11.896,4.283 C11.893,4.289 11.890,4.295 11.887,4.301 C11.874,4.304 11.862,4.307 11.850,4.310 C11.850,4.313 11.850,4.316 11.850,4.319 C11.841,4.322 11.832,4.325 11.823,4.328 C11.820,4.334 11.817,4.340 11.814,4.346 C11.802,4.349 11.790,4.352 11.778,4.355 C11.775,4.361 11.772,4.367 11.769,4.373 C11.763,4.373 11.757,4.373 11.751,4.373 C11.748,4.379 11.745,4.385 11.742,4.391 C11.730,4.394 11.718,4.397 11.706,4.400 C11.703,4.406 11.700,4.412 11.697,4.418 C11.691,4.418 11.685,4.418 11.679,4.418 C11.676,4.424 11.673,4.430 11.670,4.436 C11.658,4.439 11.646,4.442 11.634,4.445 C11.634,4.449 11.634,4.452 11.634,4.455 C11.624,4.458 11.615,4.461 11.606,4.463 C11.603,4.469 11.600,4.476 11.597,4.482 C11.585,4.485 11.573,4.488 11.561,4.491 C11.558,4.497 11.555,4.503 11.552,4.509 C11.546,4.509 11.540,4.509 11.534,4.509 C11.531,4.515 11.528,4.521 11.525,4.527 C11.513,4.530 11.501,4.533 11.489,4.536 C11.486,4.542 11.483,4.548 11.480,4.554 C11.474,4.554 11.468,4.554 11.462,4.554 C11.459,4.560 11.456,4.566 11.453,4.572 C11.441,4.575 11.429,4.578 11.417,4.581 C11.417,4.584 11.417,4.587 11.417,4.590 C11.408,4.593 11.399,4.596 11.390,4.599 C11.387,4.605 11.383,4.611 11.381,4.617 C11.368,4.620 11.356,4.623 11.344,4.626 C11.341,4.632 11.338,4.638 11.335,4.644 C11.329,4.644 11.323,4.644 11.317,4.644 C11.314,4.650 11.311,4.656 11.308,4.662 C11.302,4.662 11.296,4.662 11.290,4.662 C11.287,4.668 11.284,4.674 11.281,4.680 C11.275,4.680 11.269,4.680 11.263,4.680 C11.263,4.683 11.263,4.686 11.263,4.689 C11.257,4.689 11.251,4.689 11.245,4.689 C11.242,4.695 11.239,4.701 11.236,4.707 C11.230,4.707 11.224,4.707 11.218,4.707 C11.215,4.713 11.212,4.719 11.209,4.725 C11.197,4.728 11.185,4.731 11.173,4.734 C11.173,4.737 11.173,4.740 11.173,4.743 C11.164,4.746 11.155,4.749 11.146,4.752 C11.143,4.759 11.140,4.765 11.137,4.771 C11.131,4.771 11.124,4.771 11.118,4.771 C11.118,4.773 11.118,4.776 11.118,4.780 C11.112,4.780 11.106,4.780 11.100,4.780 C11.097,4.786 11.094,4.792 11.091,4.797 C11.085,4.797 11.079,4.797 11.073,4.797 C11.070,4.803 11.067,4.810 11.064,4.816 C11.052,4.819 11.040,4.822 11.028,4.825 C11.028,4.828 11.028,4.831 11.028,4.834 C11.019,4.837 11.010,4.840 11.001,4.843 C10.998,4.849 10.995,4.855 10.992,4.861 C10.980,4.864 10.968,4.867 10.956,4.870 C10.956,4.873 10.956,4.876 10.956,4.879 C10.947,4.882 10.938,4.885 10.929,4.888 C10.926,4.894 10.923,4.900 10.920,4.906 C10.908,4.909 10.896,4.912 10.883,4.915 C10.881,4.921 10.878,4.927 10.875,4.933 C10.868,4.933 10.862,4.933 10.856,4.933 C10.853,4.939 10.850,4.945 10.847,4.951 C10.835,4.954 10.823,4.957 10.811,4.960 C10.808,4.966 10.805,4.972 10.802,4.978 C10.796,4.978 10.790,4.978 10.784,4.978 C10.781,4.984 10.778,4.990 10.775,4.996 C10.763,4.999 10.751,5.002 10.739,5.005 C10.739,5.008 10.739,5.011 10.739,5.014 C10.730,5.017 10.721,5.020 10.712,5.023 C10.709,5.029 10.706,5.035 10.703,5.041 C10.691,5.044 10.679,5.047 10.667,5.050 C10.664,5.056 10.661,5.062 10.658,5.068 C10.652,5.068 10.646,5.068 10.640,5.068 C10.637,5.074 10.634,5.080 10.631,5.087 C10.618,5.090 10.606,5.093 10.594,5.096 C10.594,5.099 10.594,5.102 10.594,5.105 C10.585,5.108 10.576,5.111 10.567,5.114 C10.564,5.120 10.561,5.126 10.558,5.132 C10.546,5.135 10.534,5.138 10.522,5.141 C10.519,5.147 10.516,5.153 10.513,5.159 C10.507,5.159 10.501,5.159 10.495,5.159 C10.492,5.165 10.489,5.171 10.486,5.177 C10.480,5.177 10.474,5.177 10.468,5.177 C10.465,5.183 10.462,5.189 10.459,5.195 C10.453,5.195 10.447,5.195 10.441,5.195 C10.441,5.198 10.441,5.201 10.441,5.204 C10.435,5.204 10.429,5.204 10.423,5.204 C10.420,5.210 10.417,5.216 10.414,5.222 C10.408,5.222 10.402,5.222 10.396,5.222 C10.393,5.228 10.390,5.234 10.387,5.240 C10.375,5.243 10.362,5.246 10.350,5.249 C10.350,5.252 10.350,5.255 10.350,5.258 C10.341,5.261 10.332,5.264 10.323,5.267 C10.320,5.273 10.317,5.279 10.314,5.285 C10.308,5.285 10.302,5.285 10.296,5.285 C10.296,5.288 10.296,5.291 10.296,5.294 C10.290,5.294 10.284,5.294 10.278,5.294 C10.275,5.300 10.272,5.306 10.269,5.312 C10.263,5.312 10.257,5.312 10.251,5.312 C10.248,5.318 10.245,5.324 10.242,5.330 C10.230,5.333 10.218,5.336 10.206,5.339 C10.206,5.342 10.206,5.345 10.206,5.348 C10.197,5.351 10.188,5.354 10.179,5.357 C10.176,5.363 10.173,5.370 10.170,5.376 C10.158,5.379 10.146,5.382 10.134,5.385 C10.134,5.387 10.134,5.390 10.134,5.394 C10.125,5.396 10.115,5.399 10.106,5.402 C10.103,5.408 10.100,5.414 10.097,5.421 C10.085,5.424 10.073,5.427 10.061,5.430 C10.058,5.436 10.055,5.442 10.052,5.448 C10.046,5.448 10.040,5.448 10.034,5.448 C10.031,5.454 10.028,5.460 10.025,5.466 C10.013,5.469 10.001,5.472 9.989,5.475 C9.986,5.481 9.983,5.487 9.980,5.493 C9.974,5.493 9.968,5.493 9.962,5.493 C9.959,5.499 9.956,5.505 9.953,5.511 C9.941,5.514 9.929,5.517 9.917,5.520 C9.917,5.523 9.917,5.526 9.917,5.529 C9.908,5.532 9.899,5.535 9.890,5.538 C9.887,5.544 9.884,5.550 9.881,5.556 C9.869,5.559 9.856,5.562 9.844,5.565 C9.841,5.571 9.838,5.577 9.835,5.583 C9.829,5.583 9.823,5.583 9.817,5.583 C9.814,5.589 9.811,5.595 9.808,5.601 C9.796,5.604 9.784,5.607 9.772,5.610 C9.772,5.613 9.772,5.616 9.772,5.619 C9.763,5.622 9.754,5.625 9.745,5.628 C9.742,5.634 9.739,5.640 9.736,5.646 C9.724,5.649 9.712,5.652 9.700,5.655 C9.697,5.661 9.694,5.667 9.691,5.673 C9.685,5.673 9.679,5.673 9.673,5.673 C9.670,5.679 9.667,5.685 9.664,5.691 C9.658,5.691 9.652,5.691 9.646,5.691 C9.643,5.697 9.640,5.704 9.637,5.710 C9.625,5.713 9.613,5.716 9.600,5.719 C9.600,5.722 9.600,5.725 9.600,5.728 C9.591,5.731 9.582,5.734 9.573,5.737 C9.570,5.743 9.567,5.749 9.564,5.755 C9.558,5.755 9.552,5.755 9.546,5.755 C9.546,5.758 9.546,5.761 9.546,5.764 C9.540,5.764 9.534,5.764 9.528,5.764 C9.525,5.770 9.522,5.776 9.519,5.782 C9.513,5.782 9.507,5.782 9.501,5.782 C9.498,5.788 9.495,5.794 9.492,5.800 C9.480,5.803 9.468,5.806 9.456,5.809 C9.456,5.812 9.456,5.815 9.456,5.818 C9.447,5.821 9.438,5.824 9.429,5.827 C9.426,5.833 9.423,5.839 9.420,5.845 C9.408,5.848 9.396,5.851 9.384,5.854 C9.384,5.857 9.384,5.860 9.384,5.863 C9.375,5.866 9.366,5.869 9.356,5.872 C9.353,5.878 9.350,5.884 9.347,5.890 C9.335,5.893 9.323,5.896 9.311,5.899 C9.308,5.905 9.305,5.911 9.302,5.917 C9.296,5.917 9.290,5.917 9.284,5.917 C9.281,5.923 9.278,5.929 9.275,5.935 C9.263,5.938 9.251,5.941 9.239,5.944 C9.236,5.950 9.233,5.956 9.230,5.962 C9.224,5.962 9.218,5.962 9.212,5.962 C9.209,5.968 9.206,5.974 9.203,5.981 C9.191,5.984 9.179,5.987 9.167,5.990 C9.167,5.993 9.167,5.995 9.167,5.998 C9.158,6.001 9.149,6.004 9.140,6.007 C9.137,6.013 9.134,6.019 9.131,6.025 C9.125,6.025 9.119,6.025 9.113,6.025 C9.113,6.028 9.113,6.032 9.113,6.035 C9.106,6.035 9.100,6.035 9.094,6.035 C9.091,6.041 9.088,6.047 9.085,6.053 C9.079,6.053 9.073,6.053 9.067,6.053 C9.064,6.059 9.061,6.065 9.058,6.071 C9.046,6.074 9.034,6.077 9.022,6.080 C9.022,6.083 9.022,6.086 9.022,6.089 C9.013,6.092 9.004,6.095 8.995,6.098 C8.992,6.104 8.989,6.110 8.986,6.116 C8.974,6.119 8.962,6.122 8.950,6.125 C8.947,6.131 8.944,6.137 8.941,6.143 C8.935,6.143 8.929,6.143 8.923,6.143 C8.920,6.149 8.917,6.155 8.914,6.161 C8.908,6.161 8.902,6.161 8.896,6.161 C8.893,6.167 8.890,6.173 8.887,6.179 C8.875,6.182 8.863,6.185 8.850,6.188 C8.850,6.191 8.850,6.194 8.850,6.197 C8.841,6.200 8.832,6.203 8.823,6.206 C8.820,6.212 8.817,6.218 8.814,6.224 C8.802,6.227 8.790,6.230 8.778,6.233 C8.775,6.239 8.772,6.245 8.769,6.251 C8.763,6.251 8.757,6.251 8.751,6.251 C8.748,6.257 8.745,6.263 8.742,6.269 C8.730,6.272 8.718,6.275 8.706,6.278 C8.703,6.284 8.700,6.290 8.697,6.296 C8.691,6.296 8.685,6.296 8.679,6.296 C8.676,6.302 8.673,6.308 8.670,6.315 C8.658,6.318 8.646,6.321 8.634,6.324 C8.634,6.327 8.634,6.329 8.634,6.332 C8.625,6.335 8.615,6.339 8.606,6.342 C8.603,6.348 8.601,6.354 8.597,6.360 C8.591,6.360 8.585,6.360 8.579,6.360 C8.579,6.363 8.579,6.366 8.579,6.369 C8.573,6.369 8.567,6.369 8.561,6.369 C8.558,6.375 8.555,6.381 8.552,6.387 C8.546,6.387 8.540,6.387 8.534,6.387 C8.531,6.393 8.528,6.399 8.525,6.405 C8.513,6.408 8.501,6.411 8.489,6.414 C8.489,6.417 8.489,6.420 8.489,6.423 C8.480,6.426 8.471,6.429 8.462,6.432 C8.459,6.438 8.456,6.444 8.453,6.450 C8.441,6.453 8.429,6.456 8.417,6.459 C8.417,6.462 8.417,6.465 8.417,6.468 C8.408,6.471 8.399,6.474 8.390,6.477 C8.387,6.483 8.384,6.489 8.381,6.495 C8.369,6.498 8.357,6.501 8.344,6.504 C8.341,6.510 8.338,6.516 8.335,6.522 C8.329,6.522 8.323,6.522 8.317,6.522 C8.314,6.528 8.311,6.534 8.308,6.540 C8.296,6.543 8.284,6.546 8.272,6.549 C8.269,6.555 8.266,6.561 8.263,6.567 C8.257,6.567 8.251,6.567 8.245,6.567 C8.242,6.573 8.239,6.579 8.236,6.585 C8.224,6.588 8.212,6.591 8.200,6.595 C8.200,6.597 8.200,6.600 8.200,6.603 C8.191,6.606 8.182,6.609 8.173,6.612 C8.170,6.618 8.167,6.624 8.164,6.630 C8.152,6.633 8.140,6.636 8.128,6.639 C8.125,6.646 8.122,6.652 8.119,6.658 C8.113,6.658 8.106,6.658 8.101,6.658 C8.098,6.663 8.094,6.670 8.091,6.676 C8.085,6.676 8.079,6.676 8.073,6.676 C8.070,6.682 8.067,6.688 8.064,6.694 C8.052,6.697 8.040,6.700 8.028,6.703 C8.025,6.709 8.022,6.715 8.019,6.721 C8.013,6.721 8.007,6.721 8.001,6.721 C7.998,6.727 7.995,6.733 7.992,6.739 C7.980,6.742 7.968,6.745 7.956,6.748 C7.953,6.754 7.950,6.760 7.947,6.766 C7.941,6.766 7.935,6.766 7.929,6.766 C7.926,6.772 7.923,6.778 7.920,6.784 C7.908,6.787 7.896,6.790 7.884,6.793 C7.884,6.796 7.884,6.799 7.884,6.802 C7.875,6.805 7.866,6.808 7.857,6.811 C7.854,6.817 7.850,6.823 7.847,6.829 C7.835,6.832 7.823,6.835 7.811,6.838 C7.811,6.841 7.811,6.844 7.811,6.847 C7.802,6.850 7.793,6.853 7.784,6.856 C7.781,6.862 7.778,6.868 7.775,6.874 C7.763,6.877 7.751,6.880 7.739,6.883 C7.736,6.889 7.733,6.895 7.730,6.901 C7.724,6.901 7.718,6.901 7.712,6.901 C7.709,6.907 7.706,6.913 7.703,6.919 C7.691,6.922 7.679,6.926 7.667,6.928 C7.667,6.931 7.667,6.934 7.667,6.937 C7.658,6.940 7.649,6.943 7.640,6.946 C7.637,6.953 7.634,6.959 7.631,6.965 C7.619,6.968 7.607,6.971 7.594,6.974 C7.594,6.977 7.594,6.980 7.594,6.983 C7.585,6.986 7.576,6.989 7.567,6.992 C7.564,6.997 7.561,7.004 7.558,7.010 C7.552,7.010 7.546,7.010 7.540,7.010 C7.540,7.013 7.540,7.016 7.540,7.019 C7.534,7.019 7.528,7.019 7.522,7.019 C7.519,7.025 7.516,7.031 7.513,7.037 C7.507,7.037 7.501,7.037 7.495,7.037 C7.492,7.043 7.489,7.049 7.486,7.055 C7.474,7.058 7.462,7.061 7.450,7.064 C7.450,7.067 7.450,7.070 7.450,7.073 C7.441,7.076 7.432,7.079 7.423,7.082 C7.420,7.088 7.417,7.094 7.414,7.100 C7.408,7.100 7.402,7.100 7.396,7.100 C7.396,7.103 7.396,7.106 7.396,7.109 C7.390,7.109 7.384,7.109 7.378,7.109 C7.375,7.115 7.372,7.121 7.369,7.127 C7.363,7.127 7.357,7.127 7.350,7.127 C7.347,7.133 7.345,7.139 7.342,7.145 C7.329,7.148 7.317,7.151 7.305,7.154 C7.302,7.160 7.299,7.166 7.296,7.172 C7.290,7.172 7.284,7.172 7.278,7.172 C7.275,7.178 7.272,7.184 7.269,7.190 C7.260,7.193 7.251,7.196 7.242,7.199 C7.242,7.202 7.242,7.205 7.242,7.208 C7.230,7.211 7.218,7.214 7.206,7.217 C7.206,7.220 7.206,7.223 7.206,7.226 C7.197,7.229 7.188,7.233 7.179,7.235 C7.176,7.241 7.173,7.247 7.170,7.253 C7.158,7.257 7.146,7.260 7.134,7.262 C7.134,7.265 7.134,7.268 7.134,7.271 C7.125,7.274 7.116,7.277 7.107,7.280 C7.104,7.287 7.101,7.293 7.098,7.299 C7.085,7.302 7.073,7.305 7.061,7.308 C7.061,7.311 7.061,7.314 7.061,7.317 C7.052,7.320 7.043,7.323 7.034,7.326 C7.031,7.332 7.028,7.338 7.025,7.344 C7.013,7.347 7.001,7.350 6.989,7.353 C6.986,7.359 6.983,7.365 6.980,7.371 C6.974,7.371 6.968,7.371 6.962,7.371 C6.959,7.377 6.956,7.383 6.953,7.389 C6.941,7.392 6.929,7.395 6.917,7.398 C6.914,7.404 6.911,7.410 6.908,7.416 C6.902,7.416 6.896,7.416 6.890,7.416 C6.887,7.422 6.884,7.428 6.881,7.434 C6.869,7.437 6.857,7.440 6.845,7.443 C6.845,7.446 6.845,7.449 6.845,7.452 C6.835,7.455 6.826,7.458 6.817,7.461 C6.814,7.467 6.811,7.473 6.808,7.479 C6.802,7.479 6.796,7.479 6.790,7.479 C6.790,7.482 6.790,7.485 6.790,7.488 C6.784,7.488 6.778,7.488 6.772,7.488 C6.769,7.494 6.766,7.500 6.763,7.506 C6.757,7.506 6.751,7.506 6.745,7.506 C6.742,7.512 6.739,7.518 6.736,7.524 C6.724,7.527 6.712,7.530 6.700,7.533 C6.700,7.536 6.700,7.539 6.700,7.542 C6.691,7.545 6.682,7.548 6.673,7.551 C6.670,7.557 6.667,7.564 6.664,7.570 C6.652,7.573 6.640,7.576 6.628,7.579 C6.625,7.585 6.622,7.591 6.619,7.597 C6.613,7.597 6.607,7.597 6.601,7.597 C6.598,7.602 6.594,7.608 6.591,7.615 C6.579,7.618 6.567,7.621 6.555,7.624 C6.555,7.627 6.555,7.630 6.555,7.633 C6.546,7.636 6.537,7.639 6.528,7.642 C6.525,7.648 6.522,7.654 6.519,7.660 C6.507,7.663 6.495,7.666 6.483,7.669 C6.480,7.675 6.477,7.681 6.474,7.687 C6.468,7.687 6.462,7.687 6.456,7.687 C6.453,7.693 6.450,7.699 6.447,7.705 C6.441,7.705 6.435,7.705 6.429,7.705 C6.426,7.711 6.423,7.717 6.420,7.723 C6.408,7.726 6.396,7.729 6.384,7.732 C6.381,7.738 6.378,7.744 6.375,7.750 C6.369,7.750 6.363,7.750 6.357,7.750 C6.354,7.756 6.351,7.762 6.348,7.768 C6.335,7.771 6.323,7.774 6.311,7.777 C6.308,7.783 6.305,7.789 6.302,7.795 C6.296,7.795 6.290,7.795 6.284,7.795 C6.281,7.801 6.278,7.807 6.275,7.813 C6.263,7.816 6.251,7.819 6.239,7.822 C6.239,7.825 6.239,7.828 6.239,7.831 C6.230,7.834 6.221,7.837 6.212,7.840 C6.209,7.847 6.206,7.852 6.203,7.858 C6.191,7.861 6.179,7.864 6.167,7.867 C6.167,7.870 6.167,7.873 6.167,7.876 C6.158,7.879 6.149,7.882 6.140,7.885 C6.137,7.891 6.134,7.898 6.131,7.904 C6.119,7.907 6.107,7.910 6.094,7.913 C6.091,7.919 6.089,7.925 6.086,7.931 C6.079,7.931 6.073,7.931 6.067,7.931 C6.064,7.937 6.061,7.943 6.058,7.949 C6.046,7.952 6.034,7.955 6.022,7.958 C6.022,7.961 6.022,7.964 6.022,7.967 C6.013,7.970 6.004,7.973 5.995,7.976 C5.992,7.982 5.989,7.988 5.986,7.994 C5.974,7.997 5.962,8.000 5.950,8.003 C5.950,8.006 5.950,8.009 5.950,8.012 C5.941,8.015 5.932,8.018 5.923,8.021 C5.920,8.027 5.917,8.033 5.914,8.039 C5.908,8.039 5.902,8.039 5.896,8.039 C5.896,8.042 5.896,8.045 5.896,8.048 C5.890,8.048 5.884,8.048 5.878,8.048 C5.875,8.054 5.872,8.060 5.869,8.066 C5.863,8.066 5.857,8.066 5.851,8.066 C5.848,8.072 5.845,8.078 5.842,8.084 C5.829,8.087 5.817,8.090 5.805,8.093 C5.805,8.096 5.805,8.099 5.805,8.102 C5.796,8.105 5.787,8.108 5.778,8.111 C5.775,8.117 5.772,8.123 5.769,8.129 C5.763,8.129 5.757,8.129 5.751,8.129 C5.751,8.132 5.751,8.135 5.751,8.138 C5.745,8.138 5.739,8.138 5.733,8.138 C5.730,8.144 5.727,8.150 5.724,8.156 C5.718,8.156 5.712,8.156 5.706,8.156 C5.703,8.162 5.700,8.168 5.697,8.175 C5.685,8.178 5.673,8.181 5.661,8.184 C5.658,8.190 5.655,8.195 5.652,8.202 C5.646,8.202 5.640,8.202 5.634,8.202 C5.631,8.208 5.628,8.214 5.625,8.219 C5.616,8.222 5.607,8.226 5.598,8.229 C5.598,8.232 5.598,8.235 5.598,8.238 C5.586,8.241 5.573,8.244 5.561,8.247 C5.561,8.250 5.561,8.253 5.561,8.256 C5.552,8.259 5.543,8.262 5.534,8.265 C5.531,8.271 5.528,8.277 5.525,8.283 C5.513,8.286 5.501,8.289 5.489,8.292 C5.489,8.295 5.489,8.298 5.489,8.301 C5.480,8.304 5.471,8.307 5.462,8.310 C5.459,8.316 5.456,8.322 5.453,8.328 C5.447,8.328 5.441,8.328 5.435,8.328 C5.435,8.331 5.435,8.334 5.435,8.337 C5.429,8.337 5.423,8.337 5.417,8.337 C5.414,8.343 5.411,8.349 5.408,8.355 C5.402,8.355 5.396,8.355 5.390,8.355 C5.387,8.361 5.384,8.367 5.381,8.373 C5.369,8.376 5.357,8.379 5.345,8.382 C5.345,8.385 5.345,8.388 5.345,8.391 C5.336,8.394 5.326,8.397 5.317,8.400 C5.314,8.406 5.311,8.412 5.308,8.418 C5.302,8.418 5.296,8.418 5.290,8.418 C5.290,8.421 5.290,8.424 5.290,8.427 C5.284,8.427 5.278,8.427 5.272,8.427 C5.269,8.433 5.266,8.439 5.263,8.445 C5.257,8.445 5.251,8.445 5.245,8.445 C5.242,8.451 5.239,8.458 5.236,8.463 C5.224,8.466 5.212,8.469 5.200,8.472 C5.200,8.475 5.200,8.478 5.200,8.481 C5.191,8.484 5.182,8.487 5.173,8.490 C5.170,8.496 5.167,8.502 5.164,8.509 C5.152,8.512 5.140,8.515 5.128,8.518 C5.125,8.524 5.122,8.529 5.119,8.536 C5.113,8.536 5.107,8.536 5.101,8.536 C5.098,8.542 5.095,8.548 5.092,8.554 C5.079,8.557 5.067,8.560 5.055,8.563 C5.052,8.569 5.049,8.575 5.046,8.581 C5.040,8.581 5.034,8.581 5.028,8.581 C5.025,8.587 5.022,8.593 5.019,8.599 C5.007,8.602 4.995,8.605 4.983,8.608 C4.983,8.611 4.983,8.614 4.983,8.617 C4.974,8.620 4.965,8.623 4.956,8.626 C4.953,8.632 4.950,8.638 4.947,8.644 C4.941,8.644 4.935,8.644 4.929,8.644 C4.929,8.647 4.929,8.650 4.929,8.653 C4.923,8.653 4.917,8.653 4.911,8.653 C4.908,8.659 4.905,8.665 4.902,8.671 C4.896,8.671 4.890,8.671 4.884,8.671 C4.881,8.677 4.878,8.683 4.875,8.689 C4.863,8.692 4.851,8.695 4.839,8.698 C4.836,8.704 4.833,8.710 4.830,8.716 C4.823,8.716 4.817,8.716 4.811,8.716 C4.808,8.722 4.805,8.728 4.802,8.734 C4.796,8.734 4.790,8.734 4.784,8.734 C4.781,8.740 4.778,8.746 4.775,8.752 C4.759,8.763 4.755,8.752 4.739,8.770 C4.676,8.752 4.613,8.734 4.549,8.716 C4.549,8.713 4.549,8.710 4.549,8.707 C4.537,8.707 4.525,8.707 4.513,8.707 C4.513,8.704 4.513,8.701 4.513,8.698 C4.504,8.698 4.495,8.698 4.486,8.698 C4.486,8.695 4.486,8.692 4.486,8.689 C4.477,8.689 4.468,8.689 4.459,8.689 C4.459,8.686 4.459,8.683 4.459,8.680 C4.450,8.680 4.441,8.680 4.432,8.680 C4.432,8.677 4.432,8.674 4.432,8.671 C4.423,8.671 4.414,8.671 4.405,8.671 C4.405,8.668 4.405,8.665 4.405,8.662 C4.366,8.653 4.326,8.644 4.287,8.635 C4.287,8.632 4.287,8.629 4.287,8.626 C4.275,8.626 4.263,8.626 4.251,8.626 C4.251,8.623 4.251,8.620 4.251,8.617 C4.242,8.617 4.233,8.617 4.224,8.617 C4.224,8.614 4.224,8.611 4.224,8.608 C4.215,8.608 4.206,8.608 4.197,8.608 C4.197,8.605 4.197,8.602 4.197,8.599 C4.188,8.599 4.179,8.599 4.170,8.599 C4.170,8.596 4.170,8.593 4.170,8.590 C4.161,8.590 4.152,8.590 4.143,8.590 C4.143,8.587 4.143,8.584 4.143,8.581 C4.131,8.581 4.119,8.581 4.107,8.581 C4.107,8.578 4.107,8.575 4.107,8.572 C4.098,8.572 4.089,8.572 4.080,8.572 C4.080,8.569 4.080,8.566 4.080,8.563 C4.070,8.563 4.061,8.563 4.052,8.563 C4.052,8.560 4.052,8.557 4.052,8.554 C4.043,8.554 4.034,8.554 4.025,8.554 C4.025,8.551 4.025,8.548 4.025,8.545 C4.016,8.545 4.007,8.545 3.998,8.545 C3.998,8.542 3.998,8.539 3.998,8.536 C3.986,8.536 3.974,8.536 3.962,8.536 C3.962,8.533 3.962,8.529 3.962,8.527 C3.953,8.527 3.944,8.527 3.935,8.527 C3.935,8.524 3.935,8.521 3.935,8.518 C3.926,8.518 3.917,8.518 3.908,8.518 C3.908,8.515 3.908,8.512 3.908,8.509 C3.899,8.509 3.890,8.509 3.881,8.509 C3.881,8.505 3.881,8.502 3.881,8.499 C3.872,8.499 3.863,8.499 3.854,8.499 C3.854,8.496 3.854,8.493 3.854,8.490 C3.814,8.481 3.775,8.472 3.736,8.463 C3.736,8.461 3.736,8.458 3.736,8.454 C3.724,8.454 3.712,8.454 3.700,8.454 C3.700,8.451 3.700,8.448 3.700,8.445 C3.691,8.445 3.682,8.445 3.673,8.445 C3.673,8.442 3.673,8.439 3.673,8.436 C3.664,8.436 3.655,8.436 3.646,8.436 C3.646,8.433 3.646,8.430 3.646,8.427 C3.637,8.427 3.628,8.427 3.619,8.427 C3.619,8.424 3.619,8.421 3.619,8.418 C3.610,8.418 3.601,8.418 3.592,8.418 C3.592,8.415 3.592,8.412 3.592,8.409 C3.580,8.409 3.568,8.409 3.555,8.409 C3.555,8.406 3.555,8.403 3.555,8.400 C3.546,8.400 3.537,8.400 3.528,8.400 C3.528,8.397 3.528,8.394 3.528,8.391 C3.519,8.391 3.510,8.391 3.501,8.391 C3.501,8.388 3.501,8.385 3.501,8.382 C3.492,8.382 3.483,8.382 3.474,8.382 C3.474,8.379 3.474,8.376 3.474,8.373 C3.465,8.373 3.456,8.373 3.447,8.373 C3.447,8.370 3.447,8.367 3.447,8.364 C3.396,8.352 3.345,8.340 3.293,8.328 C3.293,8.325 3.293,8.322 3.293,8.319 C3.284,8.319 3.275,8.319 3.266,8.319 C3.266,8.316 3.266,8.313 3.266,8.310 C3.257,8.310 3.248,8.310 3.239,8.310 C3.239,8.307 3.239,8.304 3.239,8.301 C3.230,8.301 3.221,8.301 3.212,8.301 C3.212,8.298 3.212,8.295 3.212,8.292 C3.203,8.292 3.194,8.292 3.185,8.292 C3.185,8.289 3.185,8.286 3.185,8.283 C3.173,8.283 3.161,8.283 3.149,8.283 C3.149,8.280 3.149,8.277 3.149,8.274 C3.140,8.274 3.131,8.274 3.122,8.274 C3.122,8.271 3.122,8.268 3.122,8.265 C3.113,8.265 3.104,8.265 3.095,8.265 C3.095,8.262 3.095,8.259 3.095,8.256 C3.086,8.256 3.077,8.256 3.068,8.256 C3.068,8.253 3.068,8.250 3.068,8.247 C3.058,8.247 3.049,8.247 3.040,8.247 C3.040,8.244 3.040,8.241 3.040,8.238 C3.028,8.238 3.016,8.238 3.004,8.238 C3.004,8.235 3.004,8.232 3.004,8.229 C2.995,8.229 2.986,8.229 2.977,8.229 C2.977,8.226 2.977,8.222 2.977,8.219 C2.968,8.219 2.959,8.219 2.950,8.219 C2.950,8.217 2.950,8.214 2.950,8.211 C2.941,8.211 2.932,8.211 2.923,8.211 C2.923,8.208 2.923,8.205 2.923,8.202 C2.914,8.202 2.905,8.202 2.896,8.202 C2.896,8.198 2.896,8.195 2.896,8.193 C2.857,8.184 2.818,8.175 2.778,8.165 C2.778,8.162 2.778,8.159 2.778,8.156 C2.766,8.156 2.754,8.156 2.742,8.156 C2.742,8.153 2.742,8.150 2.742,8.147 C2.733,8.147 2.724,8.147 2.715,8.147 C2.715,8.144 2.715,8.141 2.715,8.138 C2.706,8.138 2.697,8.138 2.688,8.138 C2.688,8.135 2.688,8.132 2.688,8.129 C2.679,8.129 2.670,8.129 2.661,8.129 C2.661,8.126 2.661,8.123 2.661,8.120 C2.652,8.120 2.643,8.120 2.634,8.120 C2.634,8.117 2.634,8.114 2.634,8.111 C2.622,8.111 2.610,8.111 2.598,8.111 C2.598,8.108 2.598,8.105 2.598,8.102 C2.589,8.102 2.580,8.102 2.570,8.102 C2.570,8.099 2.570,8.096 2.570,8.093 C2.561,8.093 2.553,8.093 2.543,8.093 C2.543,8.090 2.543,8.087 2.543,8.084 C2.534,8.084 2.525,8.084 2.516,8.084 C2.516,8.081 2.516,8.078 2.516,8.075 C2.507,8.075 2.498,8.075 2.489,8.075 C2.489,8.072 2.489,8.069 2.489,8.066 C2.477,8.066 2.465,8.066 2.453,8.066 C2.453,8.063 2.453,8.060 2.453,8.057 C2.444,8.057 2.435,8.057 2.426,8.057 C2.426,8.054 2.426,8.051 2.426,8.048 C2.417,8.048 2.408,8.048 2.399,8.048 C2.399,8.045 2.399,8.042 2.399,8.039 C2.390,8.039 2.381,8.039 2.372,8.039 C2.372,8.036 2.372,8.033 2.372,8.030 C2.363,8.030 2.354,8.030 2.345,8.030 C2.345,8.027 2.345,8.024 2.345,8.021 C2.305,8.012 2.266,8.003 2.227,7.994 C2.227,7.991 2.227,7.988 2.227,7.985 C2.215,7.985 2.203,7.985 2.191,7.985 C2.191,7.982 2.191,7.979 2.191,7.976 C2.182,7.976 2.173,7.976 2.164,7.976 C2.164,7.973 2.164,7.970 2.164,7.967 C2.155,7.967 2.146,7.967 2.137,7.967 C2.137,7.964 2.137,7.961 2.137,7.958 C2.128,7.958 2.119,7.958 2.110,7.958 C2.110,7.955 2.110,7.952 2.110,7.949 C2.101,7.949 2.092,7.949 2.083,7.949 C2.083,7.946 2.083,7.943 2.083,7.940 C2.071,7.940 2.058,7.940 2.046,7.940 C1.702,7.814 1.325,7.721 0.980,7.597 C0.968,7.597 0.956,7.597 0.944,7.597 C0.944,7.594 0.944,7.591 0.944,7.588 C0.935,7.588 0.926,7.588 0.917,7.588 C0.917,7.585 0.917,7.582 0.917,7.579 C0.908,7.579 0.899,7.579 0.890,7.579 C0.890,7.576 0.890,7.573 0.890,7.570 C0.881,7.570 0.872,7.570 0.863,7.570 C0.863,7.567 0.863,7.564 0.863,7.560 C0.854,7.560 0.845,7.560 0.836,7.560 C0.836,7.557 0.836,7.554 0.836,7.551 C0.797,7.542 0.757,7.533 0.718,7.524 C0.718,7.521 0.718,7.518 0.718,7.515 C0.706,7.515 0.694,7.515 0.682,7.515 C0.682,7.512 0.682,7.509 0.682,7.506 C0.673,7.506 0.664,7.506 0.655,7.506 C0.655,7.503 0.655,7.500 0.655,7.497 C0.646,7.497 0.637,7.497 0.628,7.497 C0.628,7.494 0.628,7.491 0.628,7.488 C0.619,7.488 0.610,7.488 0.601,7.488 C0.601,7.485 0.601,7.482 0.601,7.479 C0.583,7.476 0.565,7.473 0.546,7.470 C0.546,7.467 0.546,7.464 0.546,7.461 C0.541,7.461 0.534,7.461 0.528,7.461 C0.528,7.458 0.528,7.455 0.528,7.452 C0.519,7.452 0.510,7.452 0.501,7.452 C0.501,7.449 0.501,7.446 0.501,7.443 C0.495,7.443 0.489,7.443 0.483,7.443 C0.483,7.440 0.483,7.437 0.483,7.434 C0.474,7.434 0.465,7.434 0.456,7.434 C0.456,7.431 0.456,7.428 0.456,7.425 C0.438,7.419 0.420,7.413 0.402,7.407 C0.402,7.404 0.402,7.401 0.402,7.398 C0.396,7.398 0.390,7.398 0.384,7.398 C0.384,7.395 0.384,7.392 0.384,7.389 C0.366,7.383 0.348,7.377 0.330,7.371 C0.327,7.365 0.324,7.359 0.321,7.353 C0.309,7.350 0.297,7.347 0.284,7.344 C0.284,7.341 0.284,7.338 0.284,7.335 C0.275,7.332 0.266,7.329 0.257,7.326 C0.254,7.320 0.251,7.314 0.248,7.308 C0.242,7.308 0.236,7.308 0.230,7.308 C0.224,7.299 0.218,7.290 0.212,7.280 C0.206,7.280 0.200,7.280 0.194,7.280 C0.173,7.257 0.152,7.233 0.131,7.208 C0.116,7.196 0.101,7.184 0.086,7.172 C0.086,7.166 0.086,7.160 0.086,7.154 C0.080,7.151 0.074,7.148 0.068,7.145 C0.065,7.136 0.062,7.127 0.059,7.118 C0.056,7.118 0.053,7.118 0.050,7.118 C0.030,7.088 -0.015,6.938 0.004,6.874 C0.054,6.707 0.148,6.594 0.275,6.504 C0.281,6.495 0.288,6.486 0.293,6.477 C0.300,6.477 0.306,6.477 0.312,6.477 C0.318,6.468 0.324,6.459 0.330,6.450 C0.336,6.450 0.342,6.450 0.348,6.450 C0.351,6.444 0.354,6.438 0.357,6.432 C0.363,6.432 0.369,6.432 0.375,6.432 C0.378,6.426 0.381,6.420 0.384,6.414 C0.390,6.414 0.396,6.414 0.402,6.414 C0.402,6.411 0.402,6.408 0.402,6.405 C0.408,6.405 0.414,6.405 0.420,6.405 C0.423,6.399 0.426,6.393 0.429,6.387 C0.441,6.384 0.453,6.381 0.465,6.378 C0.468,6.372 0.471,6.366 0.474,6.360 C0.480,6.360 0.486,6.360 0.492,6.360 C0.492,6.357 0.492,6.354 0.492,6.351 C0.498,6.351 0.504,6.351 0.510,6.351 C0.510,6.348 0.510,6.345 0.510,6.342 C0.516,6.342 0.522,6.342 0.528,6.342 C0.528,6.339 0.528,6.335 0.528,6.332 C0.534,6.332 0.541,6.332 0.546,6.332 C0.546,6.329 0.546,6.327 0.546,6.324 C0.553,6.324 0.559,6.324 0.565,6.324 C0.568,6.318 0.571,6.312 0.574,6.305 C0.580,6.305 0.586,6.305 0.592,6.305 C0.592,6.302 0.592,6.299 0.592,6.296 C0.601,6.296 0.610,6.296 0.619,6.296 C0.619,6.293 0.619,6.290 0.619,6.287 C0.625,6.287 0.631,6.287 0.637,6.287 C0.637,6.284 0.637,6.281 0.637,6.278 C0.643,6.278 0.649,6.278 0.655,6.278 C0.655,6.275 0.655,6.272 0.655,6.269 C0.673,6.263 0.691,6.257 0.709,6.251 C0.709,6.248 0.709,6.245 0.709,6.242 C0.718,6.242 0.727,6.242 0.736,6.242 C0.736,6.239 0.736,6.236 0.736,6.233 C0.742,6.233 0.748,6.233 0.754,6.233 C0.754,6.230 0.754,6.227 0.754,6.224 C0.763,6.224 0.772,6.224 0.781,6.224 C0.781,6.221 0.781,6.218 0.781,6.215 C0.793,6.212 0.806,6.209 0.818,6.206 C0.818,6.203 0.818,6.200 0.818,6.197 C0.827,6.197 0.836,6.197 0.845,6.197 C0.845,6.194 0.845,6.191 0.845,6.188 C0.854,6.188 0.863,6.188 0.872,6.188 C0.872,6.185 0.872,6.182 0.872,6.179 C0.878,6.179 0.884,6.179 0.890,6.179 C0.890,6.176 0.890,6.173 0.890,6.170 C0.899,6.170 0.908,6.170 0.917,6.170 C0.917,6.167 0.917,6.164 0.917,6.161 C0.923,6.161 0.929,6.161 0.935,6.161 C0.935,6.158 0.935,6.155 0.935,6.152 C0.953,6.149 0.971,6.146 0.989,6.143 C0.989,6.140 0.989,6.137 0.989,6.134 C0.995,6.134 1.001,6.134 1.007,6.134 C1.007,6.131 1.007,6.128 1.007,6.125 C1.025,6.122 1.044,6.119 1.062,6.116 C1.062,6.113 1.062,6.110 1.062,6.107 C1.068,6.107 1.074,6.107 1.080,6.107 C1.080,6.104 1.080,6.101 1.080,6.098 C1.095,6.095 1.110,6.092 1.125,6.089 C1.125,6.086 1.125,6.083 1.125,6.080 C1.143,6.077 1.161,6.074 1.179,6.071 C1.179,6.068 1.179,6.065 1.179,6.062 C1.185,6.062 1.191,6.062 1.197,6.062 C1.197,6.059 1.197,6.056 1.197,6.053 C1.206,6.053 1.215,6.053 1.224,6.053 C1.224,6.050 1.224,6.047 1.224,6.044 C1.230,6.044 1.236,6.044 1.242,6.044 C1.242,6.041 1.242,6.038 1.242,6.035 C1.260,6.032 1.278,6.028 1.297,6.025 C1.630,5.880 1.993,5.765 2.327,5.619 C2.345,5.616 2.363,5.613 2.381,5.610 C2.381,5.607 2.381,5.604 2.381,5.601 C2.387,5.601 2.393,5.601 2.399,5.601 C2.399,5.598 2.399,5.595 2.399,5.592 C2.414,5.589 2.429,5.586 2.444,5.583 C2.444,5.580 2.444,5.577 2.444,5.574 C2.462,5.571 2.480,5.568 2.498,5.565 C2.498,5.562 2.498,5.559 2.498,5.556 C2.504,5.556 2.510,5.556 2.516,5.556 C2.516,5.553 2.516,5.550 2.516,5.547 C2.534,5.544 2.553,5.541 2.570,5.538 C2.570,5.535 2.570,5.532 2.570,5.529 C2.577,5.529 2.583,5.529 2.589,5.529 C2.589,5.526 2.589,5.523 2.589,5.520 C2.598,5.520 2.607,5.520 2.616,5.520 C2.616,5.517 2.616,5.514 2.616,5.511 C2.622,5.511 2.628,5.511 2.634,5.511 C2.634,5.508 2.634,5.505 2.634,5.502 C2.652,5.499 2.670,5.496 2.688,5.493 C2.688,5.490 2.688,5.487 2.688,5.484 C2.694,5.484 2.700,5.484 2.706,5.484 C2.706,5.481 2.706,5.478 2.706,5.475 C2.715,5.475 2.724,5.475 2.733,5.475 C2.733,5.472 2.733,5.469 2.733,5.466 C2.739,5.466 2.745,5.466 2.751,5.466 C2.751,5.463 2.751,5.460 2.751,5.457 C2.769,5.454 2.787,5.451 2.805,5.448 C2.805,5.445 2.805,5.442 2.805,5.439 C2.812,5.439 2.818,5.439 2.824,5.439 C2.824,5.436 2.824,5.433 2.824,5.430 C2.839,5.427 2.854,5.424 2.869,5.421 C2.869,5.418 2.869,5.414 2.869,5.411 C2.887,5.408 2.905,5.405 2.923,5.402 C2.923,5.399 2.923,5.396 2.923,5.394 C2.929,5.394 2.935,5.394 2.941,5.394 C2.941,5.390 2.941,5.387 2.941,5.385 C2.950,5.385 2.959,5.385 2.968,5.385 C2.968,5.382 2.968,5.379 2.968,5.376 C2.974,5.376 2.980,5.376 2.986,5.376 C2.986,5.373 2.986,5.370 2.986,5.366 C3.004,5.363 3.022,5.360 3.040,5.357 C3.040,5.354 3.040,5.351 3.040,5.348 C3.046,5.348 3.052,5.348 3.058,5.348 C3.058,5.345 3.058,5.342 3.058,5.339 C3.077,5.336 3.095,5.333 3.113,5.330 C3.113,5.327 3.113,5.324 3.113,5.321 C3.119,5.321 3.125,5.321 3.131,5.321 C3.131,5.318 3.131,5.315 3.131,5.312 C3.140,5.312 3.149,5.312 3.158,5.312 C3.158,5.309 3.158,5.306 3.158,5.303 C3.164,5.303 3.170,5.303 3.176,5.303 C3.176,5.300 3.176,5.297 3.176,5.294 C3.194,5.291 3.212,5.288 3.230,5.285 C3.230,5.282 3.230,5.279 3.230,5.276 C3.236,5.276 3.242,5.276 3.248,5.276 C3.248,5.273 3.248,5.270 3.248,5.267 C3.263,5.264 3.278,5.261 3.293,5.258 C3.293,5.255 3.293,5.252 3.293,5.249 C3.312,5.246 3.330,5.243 3.348,5.240 C3.348,5.237 3.348,5.234 3.348,5.231 C3.354,5.231 3.360,5.231 3.366,5.231 C3.366,5.228 3.366,5.225 3.366,5.222 C3.375,5.222 3.384,5.222 3.393,5.222 C3.393,5.219 3.393,5.216 3.393,5.213 C3.399,5.213 3.405,5.213 3.411,5.213 C3.411,5.210 3.411,5.207 3.411,5.204 C3.429,5.201 3.447,5.198 3.465,5.195 C3.465,5.192 3.465,5.189 3.465,5.186 C3.471,5.186 3.477,5.186 3.483,5.186 C3.483,5.183 3.483,5.180 3.483,5.177 C3.492,5.177 3.501,5.177 3.510,5.177 C3.510,5.174 3.510,5.171 3.510,5.168 C3.516,5.168 3.522,5.168 3.528,5.168 C3.528,5.165 3.528,5.162 3.528,5.159 C3.546,5.156 3.565,5.153 3.583,5.150 C3.583,5.147 3.583,5.144 3.583,5.141 C3.589,5.141 3.595,5.141 3.601,5.141 C3.601,5.138 3.601,5.135 3.601,5.132 C3.610,5.132 3.619,5.132 3.628,5.132 C3.628,5.129 3.628,5.126 3.628,5.123 C3.637,5.123 3.646,5.123 3.655,5.123 C4.026,4.960 4.431,4.834 4.802,4.671 C4.821,4.668 4.839,4.665 4.857,4.662 C4.857,4.659 4.857,4.656 4.857,4.653 C4.863,4.653 4.869,4.653 4.875,4.653 C4.875,4.650 4.875,4.647 4.875,4.644 C4.890,4.641 4.905,4.638 4.920,4.635 C4.920,4.632 4.920,4.629 4.920,4.626 C4.938,4.623 4.956,4.620 4.974,4.617 C4.974,4.614 4.974,4.611 4.974,4.608 C4.980,4.608 4.986,4.608 4.992,4.608 C4.992,4.605 4.992,4.602 4.992,4.599 C5.001,4.599 5.010,4.599 5.019,4.599 C5.019,4.596 5.019,4.593 5.019,4.590 C5.025,4.590 5.031,4.590 5.037,4.590 C5.037,4.587 5.037,4.584 5.037,4.581 C5.055,4.578 5.073,4.575 5.092,4.572 C5.092,4.569 5.092,4.566 5.092,4.563 C5.098,4.563 5.104,4.563 5.110,4.563 C5.110,4.560 5.110,4.557 5.110,4.554 C5.128,4.551 5.146,4.548 5.164,4.545 C5.164,4.542 5.164,4.539 5.164,4.536 C5.170,4.536 5.176,4.536 5.182,4.536 C5.182,4.533 5.182,4.530 5.182,4.527 C5.191,4.527 5.200,4.527 5.209,4.527 C5.209,4.524 5.209,4.521 5.209,4.518 C5.215,4.518 5.221,4.518 5.227,4.518 C5.227,4.515 5.227,4.512 5.227,4.509 C5.245,4.506 5.263,4.503 5.281,4.500 C5.614,4.354 5.978,4.239 6.311,4.093 C6.384,4.069 6.456,4.045 6.528,4.021 C6.528,4.018 6.528,4.015 6.528,4.012 C6.534,4.012 6.540,4.012 6.546,4.012 C6.546,4.009 6.546,4.006 6.546,4.003 C6.564,4.000 6.582,3.997 6.601,3.994 C6.601,3.991 6.601,3.988 6.601,3.985 C6.607,3.985 6.613,3.985 6.619,3.985 C6.619,3.982 6.619,3.979 6.619,3.976 C6.634,3.973 6.649,3.970 6.664,3.967 C6.664,3.964 6.664,3.961 6.664,3.958 C6.682,3.955 6.700,3.952 6.718,3.949 C6.718,3.946 6.718,3.943 6.718,3.940 C6.724,3.940 6.730,3.940 6.736,3.940 C6.736,3.937 6.736,3.934 6.736,3.931 C6.754,3.928 6.772,3.925 6.790,3.922 C6.790,3.919 6.790,3.916 6.790,3.913 C6.796,3.913 6.802,3.913 6.808,3.913 C6.808,3.910 6.808,3.907 6.808,3.904 C6.817,3.904 6.826,3.904 6.835,3.904 C6.835,3.901 6.835,3.898 6.835,3.895 C6.842,3.895 6.847,3.895 6.854,3.895 C6.854,3.892 6.854,3.889 6.854,3.886 C6.872,3.883 6.890,3.880 6.908,3.877 C7.279,3.714 7.684,3.588 8.055,3.425 C8.073,3.422 8.091,3.419 8.110,3.416 C8.110,3.413 8.110,3.410 8.110,3.407 C8.116,3.407 8.122,3.407 8.128,3.407 C8.128,3.404 8.128,3.401 8.128,3.398 C8.143,3.395 8.158,3.392 8.173,3.389 C8.173,3.386 8.173,3.383 8.173,3.380 C8.191,3.377 8.209,3.374 8.227,3.371 C8.227,3.368 8.227,3.365 8.227,3.362 C8.233,3.362 8.239,3.362 8.245,3.362 C8.245,3.359 8.245,3.356 8.245,3.353 C8.263,3.350 8.281,3.347 8.299,3.344 C8.570,3.225 8.869,3.128 9.140,3.010 C9.158,3.007 9.176,3.004 9.194,3.001 C9.194,2.998 9.194,2.995 9.194,2.992 C9.200,2.992 9.206,2.992 9.212,2.992 C9.212,2.989 9.212,2.986 9.212,2.983 C9.230,2.980 9.248,2.977 9.266,2.974 C9.266,2.971 9.266,2.968 9.266,2.965 C9.272,2.965 9.278,2.965 9.284,2.965 C9.284,2.962 9.284,2.959 9.284,2.956 C9.293,2.956 9.302,2.956 9.311,2.956 C9.311,2.953 9.311,2.950 9.311,2.947 C9.317,2.947 9.323,2.947 9.329,2.947 C9.329,2.944 9.329,2.940 9.329,2.937 C9.347,2.934 9.366,2.931 9.384,2.928 C9.616,2.827 9.874,2.741 10.106,2.640 C10.125,2.637 10.143,2.634 10.161,2.631 C10.161,2.628 10.161,2.625 10.161,2.622 C10.167,2.622 10.173,2.622 10.179,2.622 C10.179,2.619 10.179,2.616 10.179,2.613 C10.194,2.609 10.209,2.606 10.224,2.603 C10.224,2.600 10.224,2.597 10.224,2.594 C10.242,2.592 10.260,2.589 10.278,2.586 C10.278,2.582 10.278,2.579 10.278,2.576 C10.284,2.576 10.290,2.576 10.296,2.576 C10.296,2.573 10.296,2.570 10.296,2.567 C10.314,2.564 10.332,2.561 10.350,2.558 C10.350,2.555 10.350,2.552 10.350,2.549 C10.356,2.549 10.362,2.549 10.368,2.549 C10.368,2.546 10.368,2.543 10.368,2.540 C10.384,2.537 10.399,2.534 10.414,2.531 C10.414,2.528 10.414,2.525 10.414,2.522 C10.432,2.519 10.450,2.516 10.468,2.513 C10.468,2.510 10.468,2.507 10.468,2.504 C10.474,2.504 10.480,2.504 10.486,2.504 C10.486,2.501 10.486,2.498 10.486,2.495 C10.495,2.495 10.504,2.495 10.513,2.495 C10.513,2.492 10.513,2.489 10.513,2.486 C10.519,2.486 10.525,2.486 10.531,2.486 C10.531,2.483 10.531,2.480 10.531,2.477 C10.549,2.474 10.567,2.471 10.585,2.468 C10.585,2.465 10.585,2.462 10.585,2.459 C10.591,2.459 10.597,2.459 10.603,2.459 C10.603,2.456 10.603,2.453 10.603,2.450 C10.612,2.450 10.622,2.450 10.631,2.450 C10.631,2.447 10.631,2.444 10.631,2.441 C10.637,2.441 10.643,2.441 10.649,2.441 C10.649,2.438 10.649,2.435 10.649,2.432 C10.667,2.429 10.685,2.426 10.703,2.423 C10.703,2.420 10.703,2.417 10.703,2.414 C10.709,2.414 10.715,2.414 10.721,2.414 C10.721,2.411 10.721,2.408 10.721,2.405 C10.730,2.405 10.739,2.405 10.748,2.405 C10.748,2.402 10.748,2.399 10.748,2.396 C10.754,2.396 10.760,2.396 10.766,2.396 C10.766,2.393 10.766,2.390 10.766,2.387 C10.784,2.384 10.802,2.381 10.820,2.378 C10.820,2.375 10.820,2.372 10.820,2.369 C10.826,2.369 10.832,2.369 10.838,2.369 C10.838,2.366 10.838,2.363 10.838,2.360 C10.856,2.357 10.875,2.354 10.893,2.351 C10.893,2.348 10.893,2.345 10.893,2.342 C10.899,2.342 10.905,2.342 10.911,2.342 C10.911,2.339 10.911,2.336 10.911,2.333 C10.920,2.333 10.929,2.333 10.938,2.333 C10.938,2.330 10.938,2.326 10.938,2.324 C10.944,2.324 10.950,2.324 10.956,2.324 C10.956,2.321 10.956,2.318 10.956,2.315 C10.965,2.315 10.974,2.315 10.983,2.315 C10.983,2.312 10.983,2.309 10.983,2.306 C10.992,2.306 11.001,2.306 11.010,2.306 C11.010,2.303 11.010,2.300 11.010,2.297 C11.016,2.297 11.022,2.297 11.028,2.297 C11.028,2.294 11.028,2.291 11.028,2.288 C11.043,2.285 11.058,2.282 11.073,2.279 C11.073,2.275 11.073,2.272 11.073,2.269 C11.091,2.266 11.109,2.263 11.127,2.260 C11.127,2.258 11.127,2.255 11.127,2.251 C11.134,2.251 11.140,2.251 11.146,2.251 C11.146,2.248 11.146,2.245 11.146,2.242 C11.155,2.242 11.164,2.242 11.173,2.242 C11.173,2.239 11.173,2.236 11.173,2.233 C11.179,2.233 11.185,2.233 11.191,2.233 C11.191,2.230 11.191,2.227 11.191,2.224 C11.209,2.221 11.227,2.218 11.245,2.215 C11.245,2.212 11.245,2.209 11.245,2.206 C11.251,2.206 11.257,2.206 11.263,2.206 C11.263,2.203 11.263,2.200 11.263,2.197 C11.272,2.197 11.281,2.197 11.290,2.197 C11.290,2.194 11.290,2.191 11.290,2.188 C11.296,2.188 11.302,2.188 11.308,2.188 C11.308,2.185 11.308,2.182 11.308,2.179 C11.326,2.176 11.344,2.173 11.362,2.170 C11.362,2.167 11.362,2.164 11.362,2.161 C11.368,2.161 11.374,2.161 11.381,2.161 C11.381,2.158 11.381,2.155 11.381,2.152 C11.399,2.149 11.417,2.146 11.435,2.143 C11.435,2.140 11.435,2.137 11.435,2.134 C11.441,2.134 11.447,2.134 11.453,2.134 C11.453,2.131 11.453,2.128 11.453,2.125 C11.462,2.125 11.471,2.125 11.480,2.125 C11.480,2.122 11.480,2.119 11.480,2.116 C11.486,2.116 11.492,2.116 11.498,2.116 C11.498,2.113 11.498,2.110 11.498,2.107 C11.507,2.107 11.516,2.107 11.525,2.107 C11.525,2.104 11.525,2.101 11.525,2.098 C11.534,2.098 11.543,2.098 11.552,2.098 C11.924,1.935 12.328,1.809 12.700,1.647 C12.718,1.644 12.736,1.641 12.754,1.637 C12.754,1.634 12.754,1.631 12.754,1.628 C12.760,1.628 12.766,1.628 12.772,1.628 C12.772,1.625 12.772,1.622 12.772,1.619 C12.787,1.616 12.802,1.613 12.817,1.610 C12.817,1.607 12.817,1.604 12.817,1.601 C12.835,1.598 12.853,1.595 12.871,1.592 C12.871,1.589 12.871,1.586 12.871,1.583 C12.878,1.583 12.883,1.583 12.890,1.583 C12.890,1.580 12.890,1.577 12.890,1.574 C12.908,1.571 12.926,1.568 12.944,1.565 C12.944,1.562 12.944,1.559 12.944,1.556 C12.950,1.556 12.956,1.556 12.962,1.556 C12.962,1.553 12.962,1.550 12.962,1.547 C12.971,1.547 12.980,1.547 12.989,1.547 C12.989,1.544 12.989,1.541 12.989,1.538 C12.995,1.538 13.001,1.538 13.007,1.538 C13.007,1.535 13.007,1.532 13.007,1.529 C13.025,1.526 13.043,1.523 13.061,1.520 C13.061,1.517 13.061,1.514 13.061,1.511 C13.067,1.511 13.073,1.511 13.079,1.511 C13.079,1.508 13.079,1.505 13.079,1.502 C13.088,1.502 13.097,1.502 13.106,1.502 C13.106,1.499 13.106,1.496 13.106,1.493 C13.112,1.493 13.118,1.493 13.124,1.493 C13.124,1.490 13.124,1.487 13.124,1.484 C13.134,1.484 13.143,1.484 13.152,1.484 C13.152,1.481 13.152,1.478 13.152,1.475 C13.161,1.475 13.170,1.475 13.179,1.475 C13.179,1.472 13.179,1.469 13.179,1.466 C13.185,1.466 13.191,1.466 13.197,1.466 C13.197,1.463 13.197,1.460 13.197,1.457 C13.212,1.454 13.227,1.451 13.242,1.448 C13.242,1.445 13.242,1.442 13.242,1.439 C13.260,1.436 13.278,1.433 13.296,1.430 C13.296,1.427 13.296,1.424 13.296,1.421 C13.302,1.421 13.308,1.421 13.314,1.421 C13.314,1.418 13.314,1.415 13.314,1.412 C13.323,1.412 13.332,1.412 13.341,1.412 C13.341,1.409 13.341,1.406 13.341,1.403 C13.347,1.403 13.353,1.403 13.359,1.403 C13.359,1.400 13.359,1.397 13.359,1.394 C13.377,1.391 13.395,1.388 13.414,1.385 C13.414,1.382 13.414,1.379 13.414,1.376 C13.420,1.376 13.426,1.376 13.432,1.376 C13.432,1.373 13.432,1.370 13.432,1.367 C13.450,1.364 13.468,1.361 13.486,1.357 C13.486,1.354 13.486,1.351 13.486,1.348 C13.492,1.348 13.498,1.348 13.504,1.348 C13.504,1.345 13.504,1.342 13.504,1.339 C13.513,1.339 13.522,1.339 13.531,1.339 C13.531,1.336 13.531,1.333 13.531,1.330 C13.537,1.330 13.543,1.330 13.549,1.330 C13.549,1.327 13.549,1.324 13.549,1.322 C13.567,1.319 13.585,1.316 13.603,1.313 C13.603,1.310 13.603,1.306 13.603,1.303 C13.609,1.303 13.615,1.303 13.621,1.303 C13.621,1.300 13.621,1.297 13.621,1.294 C13.630,1.294 13.639,1.294 13.648,1.294 C13.648,1.291 13.648,1.288 13.648,1.285 C13.655,1.285 13.661,1.285 13.667,1.285 C13.667,1.282 13.667,1.279 13.667,1.276 C13.685,1.273 13.703,1.270 13.721,1.267 C13.915,1.182 14.132,1.108 14.326,1.023 C14.344,1.020 14.362,1.017 14.380,1.014 C14.380,1.011 14.380,1.008 14.380,1.005 C14.386,1.005 14.392,1.005 14.399,1.005 C14.399,1.002 14.399,0.999 14.399,0.996 C14.408,0.996 14.417,0.996 14.426,0.996 C14.426,0.993 14.426,0.990 14.426,0.987 C14.435,0.987 14.444,0.987 14.453,0.987 C14.453,0.984 14.453,0.981 14.453,0.978 C14.459,0.978 14.465,0.978 14.471,0.978 C14.471,0.975 14.471,0.972 14.471,0.969 C14.486,0.966 14.501,0.963 14.516,0.960 C14.516,0.957 14.516,0.954 14.516,0.951 C14.534,0.948 14.552,0.945 14.570,0.942 C14.570,0.939 14.570,0.936 14.570,0.933 C14.576,0.933 14.582,0.933 14.588,0.933 C14.588,0.930 14.588,0.927 14.588,0.924 C14.597,0.924 14.606,0.924 14.615,0.924 C14.615,0.921 14.615,0.918 14.615,0.915 C14.621,0.915 14.627,0.915 14.633,0.915 C14.633,0.912 14.633,0.909 14.633,0.906 C14.651,0.903 14.670,0.900 14.688,0.897 C14.688,0.894 14.688,0.891 14.688,0.888 C14.694,0.888 14.700,0.888 14.706,0.888 C14.706,0.885 14.706,0.882 14.706,0.879 C14.715,0.879 14.724,0.879 14.733,0.879 C14.733,0.876 14.733,0.873 14.733,0.870 C14.739,0.870 14.745,0.870 14.751,0.870 C14.751,0.867 14.751,0.864 14.751,0.861 C14.769,0.858 14.787,0.855 14.805,0.852 C14.805,0.849 14.805,0.846 14.805,0.843 C14.811,0.843 14.817,0.843 14.823,0.843 C14.823,0.840 14.823,0.837 14.823,0.834 C14.832,0.834 14.841,0.834 14.850,0.834 C14.850,0.831 14.850,0.828 14.850,0.825 C14.856,0.825 14.862,0.825 14.868,0.825 C14.868,0.822 14.868,0.819 14.868,0.816 C14.886,0.813 14.904,0.810 14.923,0.807 C14.923,0.804 14.923,0.801 14.923,0.798 C14.929,0.798 14.935,0.798 14.941,0.798 C14.941,0.795 14.941,0.792 14.941,0.789 C14.950,0.789 14.959,0.789 14.968,0.789 C14.968,0.786 14.968,0.783 14.968,0.780 C14.977,0.780 14.986,0.780 14.995,0.780 C15.304,0.644 15.643,0.536 15.953,0.400 C15.971,0.397 15.989,0.394 16.007,0.392 C16.007,0.388 16.007,0.385 16.007,0.382 C16.013,0.382 16.019,0.382 16.025,0.382 C16.025,0.379 16.025,0.376 16.025,0.373 C16.043,0.370 16.061,0.367 16.079,0.364 C16.079,0.361 16.079,0.358 16.079,0.355 C16.085,0.355 16.091,0.355 16.097,0.355 C16.097,0.352 16.097,0.349 16.097,0.346 C16.112,0.343 16.127,0.340 16.142,0.337 C16.142,0.334 16.142,0.331 16.142,0.328 C16.160,0.325 16.179,0.322 16.197,0.319 C16.197,0.316 16.197,0.313 16.197,0.310 C16.203,0.310 16.209,0.310 16.215,0.310 C16.215,0.307 16.215,0.304 16.215,0.301 C16.224,0.301 16.233,0.301 16.242,0.301 C16.242,0.298 16.242,0.295 16.242,0.292 C16.248,0.292 16.254,0.292 16.260,0.292 C16.260,0.289 16.260,0.286 16.260,0.283 C16.278,0.280 16.296,0.277 16.314,0.274 C16.314,0.271 16.314,0.268 16.314,0.265 C16.320,0.265 16.326,0.265 16.332,0.265 C16.332,0.262 16.332,0.259 16.332,0.256 C16.341,0.256 16.350,0.256 16.359,0.256 C16.359,0.253 16.359,0.250 16.359,0.247 C16.365,0.247 16.371,0.247 16.377,0.247 C16.377,0.244 16.377,0.241 16.377,0.238 C16.386,0.238 16.395,0.238 16.404,0.238 C16.404,0.235 16.404,0.232 16.404,0.229 C16.413,0.229 16.423,0.229 16.432,0.229 C16.432,0.226 16.432,0.223 16.432,0.220 C16.438,0.220 16.444,0.220 16.450,0.220 C16.450,0.217 16.450,0.214 16.450,0.211 C16.468,0.208 16.486,0.205 16.504,0.202 C16.504,0.199 16.504,0.196 16.504,0.193 C16.510,0.193 16.516,0.193 16.522,0.193 C16.522,0.190 16.522,0.187 16.522,0.184 C16.531,0.184 16.540,0.184 16.549,0.184 C16.549,0.181 16.549,0.178 16.549,0.175 C16.555,0.175 16.561,0.175 16.567,0.175 C16.567,0.172 16.567,0.169 16.567,0.166 C16.585,0.163 16.603,0.160 16.621,0.157 C16.621,0.154 16.621,0.151 16.621,0.148 C16.627,0.148 16.633,0.148 16.639,0.148 C16.639,0.145 16.639,0.142 16.639,0.139 C16.757,0.099 16.874,0.060 16.992,0.021 C17.034,0.018 17.076,0.015 17.118,0.012 C17.221,-0.017 17.366,0.012 17.444,0.039 C17.456,0.039 17.468,0.039 17.480,0.039 C17.480,0.042 17.480,0.045 17.480,0.048 C17.486,0.048 17.492,0.048 17.498,0.048 C17.498,0.051 17.498,0.054 17.498,0.057 C17.507,0.057 17.516,0.057 17.525,0.057 C17.525,0.060 17.525,0.063 17.525,0.066 C17.543,0.072 17.561,0.078 17.579,0.085 C17.579,0.088 17.579,0.091 17.579,0.094 C17.585,0.094 17.591,0.094 17.597,0.094 C17.597,0.096 17.597,0.099 17.597,0.102 C17.609,0.105 17.621,0.108 17.633,0.112 C17.636,0.118 17.639,0.124 17.642,0.129 C17.648,0.129 17.654,0.129 17.660,0.129 C17.667,0.139 17.672,0.148 17.679,0.157 C17.684,0.157 17.691,0.157 17.697,0.157 C17.712,0.175 17.727,0.193 17.742,0.211 C17.763,0.229 17.784,0.247 17.805,0.265 C17.805,0.271 17.805,0.277 17.805,0.283 C17.814,0.289 17.823,0.295 17.832,0.301 C17.832,0.307 17.832,0.313 17.832,0.319 C17.838,0.322 17.844,0.325 17.850,0.328 C17.856,0.346 17.862,0.364 17.868,0.382 C17.874,0.385 17.880,0.388 17.886,0.392 C17.886,0.397 17.886,0.403 17.886,0.409 C17.889,0.409 17.892,0.409 17.895,0.409 C17.895,0.416 17.895,0.422 17.895,0.428 C17.898,0.428 17.901,0.428 17.904,0.428 C17.904,0.437 17.904,0.446 17.904,0.455 C17.907,0.455 17.910,0.455 17.913,0.455 C17.913,0.461 17.913,0.467 17.913,0.473 C17.916,0.473 17.919,0.473 17.923,0.473 C17.923,0.482 17.923,0.491 17.923,0.500 C17.925,0.500 17.928,0.500 17.932,0.500 C17.932,0.509 17.932,0.518 17.932,0.527 C17.935,0.527 17.938,0.527 17.941,0.527 C17.941,0.536 17.941,0.545 17.941,0.554 C17.944,0.554 17.947,0.554 17.950,0.554 C17.950,0.563 17.950,0.572 17.950,0.581 C17.953,0.581 17.956,0.581 17.959,0.581 C17.959,0.593 17.959,0.605 17.959,0.617 C17.962,0.617 17.965,0.617 17.968,0.617 C17.968,0.632 17.968,0.647 17.968,0.662 C17.971,0.662 17.974,0.662 17.977,0.662 C17.977,0.680 17.977,0.699 17.977,0.716 C17.980,0.716 17.983,0.716 17.986,0.716 C17.986,0.743 17.986,0.771 17.986,0.798 C17.989,0.798 17.992,0.798 17.995,0.798 C18.007,0.841 17.995,1.019 17.986,1.051 C17.986,1.084 17.986,1.117 17.986,1.150 C17.983,1.150 17.980,1.150 17.977,1.150 C17.977,1.171 17.977,1.192 17.977,1.213 C17.974,1.213 17.971,1.213 17.968,1.213 C17.968,1.231 17.968,1.249 17.968,1.267 C17.965,1.267 17.962,1.267 17.959,1.267 C17.959,1.285 17.959,1.303 17.959,1.322 C17.956,1.322 17.953,1.322 17.950,1.322 C17.950,1.336 17.950,1.351 17.950,1.367 C17.947,1.367 17.944,1.367 17.941,1.367 C17.941,1.379 17.941,1.391 17.941,1.403 C17.938,1.403 17.935,1.403 17.932,1.403 C17.932,1.418 17.932,1.433 17.932,1.448 C17.898,1.550 17.883,1.679 17.850,1.782 C17.847,1.812 17.844,1.842 17.841,1.872 C17.838,1.872 17.835,1.872 17.832,1.872 C17.832,1.884 17.832,1.896 17.832,1.908 C17.829,1.908 17.826,1.908 17.823,1.908 C17.823,1.924 17.823,1.938 17.823,1.953 C17.820,1.953 17.817,1.953 17.814,1.953 C17.814,1.968 17.814,1.984 17.814,1.999 C17.811,1.999 17.808,1.999 17.805,1.999 C17.805,2.011 17.805,2.023 17.805,2.035 C17.802,2.035 17.799,2.035 17.796,2.035 C17.793,2.065 17.790,2.095 17.787,2.125 C17.727,2.309 17.710,2.528 17.651,2.712 C17.648,2.742 17.645,2.772 17.642,2.802 C17.639,2.802 17.636,2.802 17.633,2.802 C17.633,2.814 17.633,2.826 17.633,2.838 C17.630,2.838 17.627,2.838 17.624,2.838 C17.624,2.853 17.624,2.868 17.624,2.883 C17.621,2.883 17.618,2.883 17.615,2.883 C17.615,2.899 17.615,2.914 17.615,2.928 C17.612,2.928 17.609,2.928 17.606,2.928 C17.603,2.956 17.600,2.983 17.597,3.010 C17.594,3.010 17.591,3.010 17.588,3.010 C17.585,3.040 17.582,3.070 17.579,3.100 C17.546,3.203 17.530,3.330 17.498,3.434 C17.495,3.464 17.492,3.494 17.489,3.525 C17.460,3.613 17.445,3.725 17.416,3.813 C17.413,3.844 17.410,3.874 17.407,3.904 C17.404,3.904 17.401,3.904 17.398,3.904 C17.398,3.916 17.398,3.928 17.398,3.940 C17.395,3.940 17.392,3.940 17.389,3.940 C17.389,3.955 17.389,3.970 17.389,3.985 C17.386,3.985 17.383,3.985 17.380,3.985 C17.380,4.000 17.380,4.015 17.380,4.030 C17.377,4.030 17.374,4.030 17.371,4.030 C17.368,4.057 17.365,4.084 17.362,4.111 C17.359,4.111 17.356,4.111 17.353,4.111 C17.350,4.141 17.347,4.172 17.344,4.202 C17.285,4.385 17.268,4.605 17.209,4.789 C17.203,4.831 17.197,4.873 17.191,4.915 C17.188,4.915 17.185,4.915 17.182,4.915 C17.179,4.945 17.176,4.975 17.172,5.005 C17.169,5.005 17.167,5.005 17.163,5.005 C17.163,5.017 17.163,5.029 17.163,5.041 C17.160,5.041 17.157,5.041 17.154,5.041 C17.154,5.056 17.154,5.071 17.154,5.087 C17.151,5.087 17.148,5.087 17.145,5.087 C17.145,5.102 17.145,5.117 17.145,5.132 C17.142,5.132 17.139,5.132 17.136,5.132 C17.136,5.144 17.136,5.156 17.136,5.168 C17.133,5.168 17.130,5.168 17.127,5.168 C17.127,5.183 17.127,5.198 17.127,5.213 C17.124,5.213 17.121,5.213 17.118,5.213 C17.115,5.243 17.112,5.273 17.109,5.303 C17.106,5.303 17.103,5.303 17.100,5.303 C17.100,5.315 17.100,5.327 17.100,5.339 C17.097,5.339 17.094,5.339 17.091,5.339 C17.091,5.354 17.091,5.370 17.091,5.385 C17.088,5.385 17.085,5.385 17.082,5.385 C17.082,5.399 17.082,5.414 17.082,5.430 C17.079,5.430 17.076,5.430 17.073,5.430 C17.073,5.442 17.073,5.454 17.073,5.466 C17.070,5.466 17.067,5.466 17.064,5.466 C17.061,5.496 17.058,5.526 17.055,5.556 C16.996,5.739 16.978,5.959 16.919,6.143 C16.916,6.173 16.913,6.203 16.910,6.233 C16.907,6.233 16.904,6.233 16.901,6.233 C16.901,6.245 16.901,6.257 16.901,6.269 C16.898,6.269 16.895,6.269 16.892,6.269 C16.892,6.284 16.892,6.299 16.892,6.315 C16.889,6.315 16.886,6.315 16.883,6.315 C16.883,6.329 16.883,6.345 16.883,6.360 C16.880,6.360 16.877,6.360 16.874,6.360 C16.871,6.387 16.868,6.414 16.865,6.441 C16.862,6.441 16.859,6.441 16.856,6.441 C16.853,6.471 16.850,6.501 16.847,6.531 C16.844,6.531 16.841,6.531 16.838,6.531 C16.838,6.543 16.838,6.555 16.838,6.567 C16.835,6.567 16.832,6.567 16.829,6.567 C16.829,6.582 16.829,6.597 16.829,6.612 C16.826,6.612 16.823,6.612 16.820,6.612 C16.820,6.627 16.820,6.643 16.820,6.658 C16.817,6.658 16.814,6.658 16.811,6.658 C16.811,6.670 16.811,6.682 16.811,6.694 C16.808,6.694 16.805,6.694 16.802,6.694 C16.802,6.709 16.802,6.724 16.802,6.739 C16.799,6.739 16.796,6.739 16.793,6.739 C16.793,6.754 16.793,6.769 16.793,6.784 C16.733,6.967 16.716,7.187 16.657,7.371 C16.651,7.413 16.645,7.455 16.639,7.497 C16.636,7.497 16.633,7.497 16.630,7.497 C16.630,7.512 16.630,7.527 16.630,7.542 C16.627,7.542 16.624,7.542 16.621,7.542 C16.621,7.557 16.621,7.573 16.621,7.588 C16.618,7.588 16.615,7.588 16.612,7.588 C16.612,7.602 16.612,7.618 16.612,7.633 C16.609,7.633 16.606,7.633 16.603,7.633 C16.603,7.645 16.603,7.657 16.603,7.669 C16.600,7.669 16.597,7.669 16.594,7.669 C16.582,7.741 16.570,7.813 16.558,7.885 C16.499,8.069 16.482,8.289 16.423,8.472 C16.416,8.515 16.411,8.557 16.404,8.599 C16.401,8.599 16.398,8.599 16.395,8.599 C16.389,8.644 16.383,8.689 16.377,8.734 C16.322,8.903 16.305,9.107 16.251,9.276 C16.245,9.321 16.239,9.366 16.233,9.411 C16.191,9.540 16.175,9.698 16.133,9.827 C16.127,9.872 16.121,9.917 16.115,9.962 C16.073,10.091 16.057,10.249 16.016,10.378 C16.010,10.423 16.004,10.468 15.998,10.513 C15.995,10.513 15.992,10.513 15.989,10.513 C15.989,10.525 15.989,10.537 15.989,10.549 C15.986,10.549 15.983,10.549 15.980,10.549 C15.980,10.564 15.980,10.579 15.980,10.594 C15.977,10.594 15.974,10.594 15.971,10.594 C15.971,10.609 15.971,10.624 15.971,10.639 C15.968,10.639 15.965,10.639 15.962,10.639 C15.962,10.652 15.962,10.663 15.962,10.676 C15.959,10.676 15.956,10.676 15.953,10.676 C15.950,10.706 15.947,10.736 15.944,10.766 C15.941,10.766 15.938,10.766 15.935,10.766 C15.935,10.778 15.935,10.790 15.935,10.802 C15.932,10.802 15.929,10.802 15.926,10.802 C15.926,10.817 15.926,10.832 15.926,10.847 C15.923,10.847 15.920,10.847 15.916,10.847 C15.916,10.862 15.916,10.877 15.916,10.892 C15.914,10.892 15.911,10.892 15.907,10.892 C15.907,10.904 15.907,10.916 15.907,10.928 C15.904,10.928 15.901,10.928 15.898,10.928 C15.895,10.958 15.892,10.989 15.889,11.019 C15.831,11.203 15.813,11.421 15.754,11.605 C15.751,11.636 15.748,11.665 15.745,11.696 C15.742,11.696 15.739,11.696 15.736,11.696 C15.736,11.711 15.736,11.726 15.736,11.741 C15.733,11.741 15.730,11.741 15.727,11.741 C15.727,11.753 15.727,11.765 15.727,11.777 C15.724,11.777 15.721,11.777 15.718,11.777 C15.718,11.792 15.718,11.807 15.718,11.822 C15.715,11.822 15.712,11.822 15.709,11.822 C15.709,11.837 15.709,11.852 15.709,11.867 C15.706,11.867 15.703,11.867 15.700,11.867 C15.700,11.879 15.700,11.891 15.700,11.904 C15.697,11.904 15.694,11.904 15.691,11.904 C15.688,11.933 15.685,11.964 15.682,11.994 C15.679,11.994 15.676,11.994 15.672,11.994 C15.672,12.006 15.672,12.018 15.672,12.030 C15.670,12.030 15.667,12.030 15.663,12.030 C15.663,12.045 15.663,12.060 15.663,12.075 C15.660,12.075 15.658,12.075 15.655,12.075 C15.655,12.090 15.655,12.105 15.655,12.120 C15.651,12.120 15.648,12.120 15.645,12.120 C15.645,12.132 15.645,12.144 15.645,12.156 C15.642,12.156 15.639,12.156 15.636,12.156 C15.636,12.171 15.636,12.186 15.636,12.201 C15.633,12.201 15.630,12.201 15.627,12.201 C15.624,12.231 15.621,12.262 15.618,12.292 C15.590,12.380 15.574,12.493 15.546,12.581 C15.543,12.611 15.540,12.641 15.537,12.671 C15.534,12.671 15.531,12.671 15.528,12.671 C15.528,12.683 15.528,12.695 15.528,12.707 C15.525,12.707 15.522,12.707 15.519,12.707 C15.519,12.722 15.519,12.737 15.519,12.752 C15.516,12.752 15.513,12.752 15.510,12.752 C15.510,12.767 15.510,12.782 15.510,12.797 C15.507,12.797 15.504,12.797 15.501,12.797 C15.498,12.824 15.495,12.852 15.492,12.879 C15.489,12.879 15.486,12.879 15.483,12.879 C15.480,12.909 15.477,12.939 15.474,12.969 C15.471,12.969 15.468,12.969 15.465,12.969 C15.465,12.981 15.465,12.993 15.465,13.005 C15.462,13.005 15.459,13.005 15.456,13.005 C15.456,13.020 15.456,13.035 15.456,13.050 C15.453,13.050 15.450,13.050 15.447,13.050 C15.447,13.065 15.447,13.080 15.447,13.095 C15.444,13.095 15.441,13.095 15.438,13.095 C15.438,13.107 15.438,13.119 15.438,13.131 C15.435,13.131 15.432,13.131 15.429,13.131 C15.426,13.161 15.423,13.192 15.420,13.222 C15.360,13.405 15.343,13.625 15.284,13.808 C15.281,13.839 15.278,13.869 15.275,13.899 C15.272,13.899 15.269,13.899 15.266,13.899 C15.263,13.926 15.260,13.953 15.257,13.980 C15.254,13.980 15.251,13.980 15.248,13.980 C15.248,13.995 15.248,14.010 15.248,14.025 C15.245,14.025 15.242,14.025 15.239,14.025 C15.239,14.040 15.239,14.055 15.239,14.070 C15.236,14.070 15.233,14.070 15.230,14.070 C15.230,14.082 15.230,14.094 15.230,14.107 C15.227,14.107 15.224,14.107 15.221,14.107 C15.221,14.119 15.221,14.131 15.221,14.142 C15.218,14.142 15.215,14.142 15.212,14.142 C15.209,14.167 15.206,14.191 15.203,14.215 C15.200,14.215 15.197,14.215 15.194,14.215 C15.191,14.236 15.188,14.257 15.185,14.278 C15.182,14.278 15.179,14.278 15.176,14.278 C15.176,14.287 15.176,14.296 15.176,14.305 C15.173,14.305 15.170,14.305 15.167,14.305 C15.167,14.314 15.167,14.323 15.167,14.332 C15.164,14.332 15.160,14.332 15.158,14.332 C15.158,14.341 15.158,14.350 15.158,14.359 C15.155,14.359 15.151,14.359 15.148,14.359 C15.148,14.365 15.148,14.371 15.148,14.377 C15.145,14.377 15.142,14.377 15.139,14.377 C15.139,14.386 15.139,14.395 15.139,14.404 C15.136,14.404 15.133,14.404 15.130,14.404 C15.130,14.410 15.130,14.416 15.130,14.422 C15.127,14.422 15.124,14.422 15.121,14.422 C15.121,14.432 15.121,14.441 15.121,14.450 C15.118,14.450 15.115,14.450 15.112,14.450 C15.106,14.468 15.100,14.486 15.094,14.504 C15.091,14.504 15.088,14.504 15.085,14.504 C15.085,14.510 15.085,14.516 15.085,14.522 C15.082,14.522 15.079,14.522 15.076,14.522 C15.076,14.528 15.076,14.534 15.076,14.540 C15.073,14.540 15.070,14.540 15.067,14.540 C15.067,14.546 15.067,14.552 15.067,14.558 C15.064,14.558 15.061,14.558 15.058,14.558 C15.058,14.564 15.058,14.570 15.058,14.576 C15.055,14.576 15.052,14.576 15.049,14.576 C15.049,14.582 15.049,14.588 15.049,14.594 C15.046,14.594 15.043,14.594 15.040,14.594 C15.040,14.600 15.040,14.606 15.040,14.612 C15.037,14.612 15.034,14.612 15.031,14.612 C15.028,14.621 15.025,14.630 15.022,14.639 C15.016,14.642 15.010,14.645 15.004,14.648 C15.004,14.654 15.004,14.660 15.004,14.666 C14.998,14.669 14.992,14.672 14.986,14.675 C14.986,14.681 14.986,14.687 14.986,14.693 C14.977,14.699 14.968,14.705 14.959,14.712 C14.959,14.718 14.959,14.724 14.959,14.730 C14.941,14.744 14.923,14.760 14.904,14.775 C14.904,14.781 14.904,14.787 14.904,14.793 C14.899,14.796 14.892,14.799 14.886,14.802 C14.886,14.805 14.886,14.808 14.886,14.811 C14.880,14.811 14.874,14.811 14.868,14.811 C14.853,14.829 14.838,14.847 14.823,14.865 C14.817,14.865 14.811,14.865 14.805,14.865 C14.802,14.871 14.799,14.877 14.796,14.883 C14.787,14.886 14.778,14.889 14.769,14.892 C14.769,14.895 14.769,14.898 14.769,14.901 C14.763,14.901 14.757,14.901 14.751,14.901 C14.748,14.907 14.745,14.913 14.742,14.919 C14.715,14.928 14.688,14.937 14.660,14.946 C14.660,14.949 14.660,14.952 14.660,14.955 C14.655,14.955 14.648,14.955 14.642,14.955 C14.642,14.958 14.642,14.961 14.642,14.964 C14.621,14.967 14.600,14.970 14.579,14.973 C14.454,15.015 14.273,15.004 14.155,14.964 C14.142,14.964 14.130,14.964 14.118,14.964 C14.118,14.961 14.118,14.958 14.118,14.955 C14.109,14.955 14.100,14.955 14.091,14.955 C14.091,14.952 14.091,14.949 14.091,14.946 C14.079,14.946 14.067,14.946 14.055,14.946 C14.055,14.943 14.055,14.940 14.055,14.937 C14.049,14.937 14.043,14.937 14.037,14.937 C14.037,14.934 14.037,14.931 14.037,14.928 C14.019,14.925 14.001,14.922 13.983,14.919 C13.983,14.916 13.983,14.913 13.983,14.910 C13.977,14.910 13.971,14.910 13.965,14.910 C13.965,14.907 13.965,14.904 13.965,14.901 C13.956,14.901 13.947,14.901 13.938,14.901 C13.938,14.898 13.938,14.895 13.938,14.892 C13.926,14.889 13.914,14.886 13.902,14.883 C13.902,14.880 13.902,14.877 13.902,14.874 C13.892,14.874 13.883,14.874 13.874,14.874 C13.874,14.871 13.874,14.868 13.874,14.865 C13.856,14.859 13.838,14.853 13.820,14.847 C13.820,14.844 13.820,14.841 13.820,14.838 C13.814,14.838 13.808,14.838 13.802,14.838 C13.802,14.835 13.802,14.832 13.802,14.829 C13.790,14.826 13.778,14.823 13.766,14.820 C13.763,14.814 13.760,14.808 13.757,14.802 C13.745,14.799 13.733,14.796 13.721,14.793 C13.718,14.787 13.715,14.781 13.712,14.775 C13.706,14.775 13.700,14.775 13.694,14.775 C13.688,14.766 13.682,14.756 13.676,14.747 C13.670,14.747 13.664,14.747 13.658,14.747 C13.652,14.739 13.646,14.730 13.639,14.721 C13.633,14.721 13.627,14.721 13.621,14.721 C13.618,14.715 13.615,14.709 13.612,14.702 C13.606,14.702 13.600,14.702 13.594,14.702 C13.588,14.693 13.582,14.684 13.576,14.675 C13.570,14.675 13.564,14.675 13.558,14.675 C13.552,14.666 13.546,14.657 13.540,14.648 C13.534,14.648 13.528,14.648 13.522,14.648 C13.516,14.639 13.510,14.630 13.504,14.621 C13.498,14.621 13.492,14.621 13.486,14.621 C13.483,14.615 13.480,14.609 13.477,14.603 C13.471,14.603 13.465,14.603 13.459,14.603 C13.453,14.594 13.447,14.585 13.441,14.576 C13.435,14.576 13.429,14.576 13.423,14.576 C13.417,14.567 13.411,14.558 13.405,14.549 C13.399,14.549 13.392,14.549 13.386,14.549 C13.380,14.540 13.374,14.531 13.368,14.522 C13.362,14.522 13.356,14.522 13.350,14.522 C13.347,14.516 13.344,14.510 13.341,14.504 C13.335,14.504 13.329,14.504 13.323,14.504 C13.317,14.495 13.311,14.486 13.305,14.477 C13.299,14.477 13.293,14.477 13.287,14.477 C13.281,14.468 13.275,14.459 13.269,14.450 C13.263,14.450 13.257,14.450 13.251,14.450 C13.245,14.441 13.239,14.432 13.233,14.422 C13.227,14.422 13.221,14.422 13.215,14.422 C13.212,14.416 13.209,14.410 13.206,14.404 C13.200,14.404 13.194,14.404 13.188,14.404 C13.182,14.395 13.176,14.386 13.170,14.377 C12.308,13.768 11.475,13.126 10.612,12.518 C10.606,12.508 10.600,12.499 10.594,12.490 C10.585,12.487 10.576,12.484 10.567,12.481 C10.564,12.475 10.561,12.469 10.558,12.463 C10.552,12.463 10.546,12.463 10.540,12.463 C10.537,12.457 10.534,12.451 10.531,12.445 C10.525,12.445 10.519,12.445 10.513,12.445 C10.510,12.439 10.507,12.433 10.504,12.427 C10.495,12.424 10.486,12.421 10.477,12.418 C10.471,12.409 10.465,12.400 10.459,12.391 C10.453,12.391 10.447,12.391 10.441,12.391 C10.435,12.382 10.429,12.373 10.423,12.364 C10.417,12.364 10.411,12.364 10.405,12.364 C10.402,12.358 10.399,12.352 10.396,12.346 C10.390,12.346 10.384,12.346 10.378,12.346 C10.371,12.337 10.366,12.328 10.359,12.319 C10.353,12.319 10.347,12.319 10.341,12.319 C10.335,12.310 10.329,12.301 10.323,12.292 C10.317,12.292 10.311,12.292 10.305,12.292 C10.299,12.282 10.293,12.274 10.287,12.265 C10.281,12.265 10.275,12.265 10.269,12.265 C10.266,12.259 10.263,12.253 10.260,12.247 C10.254,12.247 10.248,12.247 10.242,12.247 C10.236,12.238 10.230,12.228 10.224,12.219 C10.218,12.219 10.212,12.219 10.206,12.219 C10.200,12.210 10.194,12.201 10.188,12.192 C10.182,12.192 10.176,12.192 10.170,12.192 C10.164,12.183 10.158,12.174 10.152,12.165 C10.146,12.165 10.140,12.165 10.134,12.165 C10.131,12.159 10.127,12.153 10.125,12.147 C10.118,12.147 10.112,12.147 10.106,12.147 C10.103,12.141 10.100,12.135 10.097,12.129 C10.088,12.126 10.079,12.123 10.070,12.120 C10.064,12.111 10.058,12.102 10.052,12.093 C10.046,12.093 10.040,12.093 10.034,12.093 C10.028,12.084 10.022,12.075 10.016,12.066 C10.010,12.066 10.004,12.066 9.998,12.066 C9.995,12.060 9.992,12.054 9.989,12.048 C9.983,12.048 9.977,12.048 9.971,12.048 C9.968,12.042 9.965,12.036 9.962,12.030 C9.953,12.027 9.944,12.024 9.935,12.021 C9.929,12.012 9.923,12.003 9.917,11.994 C9.911,11.994 9.905,11.994 9.899,11.994 C9.893,11.985 9.887,11.976 9.881,11.967 C9.875,11.967 9.869,11.967 9.862,11.967 C9.859,11.961 9.856,11.955 9.853,11.948 C9.847,11.948 9.841,11.948 9.835,11.948 C9.829,11.939 9.823,11.930 9.817,11.921 C9.811,11.921 9.805,11.921 9.799,11.921 C9.793,11.912 9.787,11.904 9.781,11.894 C9.775,11.894 9.769,11.894 9.763,11.894 C9.757,11.885 9.751,11.876 9.745,11.867 C9.739,11.867 9.733,11.867 9.727,11.867 C9.724,11.861 9.721,11.855 9.718,11.849 C9.712,11.849 9.706,11.849 9.700,11.849 C9.694,11.840 9.688,11.831 9.682,11.822 C9.676,11.822 9.670,11.822 9.664,11.822 C9.661,11.816 9.658,11.810 9.655,11.804 C9.646,11.801 9.637,11.798 9.628,11.795 C9.628,11.792 9.628,11.789 9.628,11.786 C9.612,11.774 9.610,11.772 9.582,11.768 C9.534,11.819 9.486,11.870 9.438,11.921 C9.429,11.924 9.420,11.928 9.411,11.930 C9.350,11.994 9.290,12.057 9.230,12.120 C9.167,12.166 9.113,12.219 9.058,12.274 C9.043,12.292 9.028,12.310 9.013,12.328 C9.007,12.328 9.001,12.328 8.995,12.328 C8.995,12.331 8.995,12.334 8.995,12.337 C8.983,12.346 8.971,12.355 8.959,12.364 C8.908,12.418 8.857,12.472 8.805,12.526 C8.799,12.526 8.793,12.526 8.787,12.526 C8.781,12.535 8.775,12.544 8.769,12.553 C8.748,12.572 8.727,12.590 8.706,12.608 C8.670,12.647 8.634,12.686 8.597,12.725 C8.591,12.725 8.585,12.725 8.579,12.725 C8.564,12.743 8.549,12.761 8.534,12.779 C8.483,12.831 8.432,12.880 8.372,12.924 C8.357,12.942 8.341,12.960 8.326,12.978 C8.275,13.029 8.224,13.079 8.164,13.122 C8.131,13.158 8.098,13.195 8.064,13.231 C8.040,13.252 8.016,13.273 7.992,13.294 C7.986,13.303 7.980,13.312 7.974,13.321 C7.968,13.321 7.962,13.321 7.956,13.321 C7.941,13.339 7.926,13.357 7.911,13.375 C7.859,13.427 7.808,13.476 7.748,13.520 C7.667,13.604 7.585,13.688 7.504,13.772 C7.498,13.772 7.492,13.772 7.486,13.772 C7.465,13.797 7.444,13.821 7.423,13.845 C7.417,13.845 7.411,13.845 7.405,13.845 C7.396,13.857 7.387,13.869 7.378,13.881 C7.372,13.881 7.366,13.881 7.360,13.881 C7.354,13.890 7.347,13.899 7.342,13.908 C7.335,13.908 7.329,13.908 7.323,13.908 C7.320,13.914 7.317,13.920 7.314,13.926 C7.305,13.929 7.296,13.932 7.287,13.935 C7.287,13.938 7.287,13.941 7.287,13.944 C7.281,13.944 7.275,13.944 7.269,13.944 C7.266,13.950 7.263,13.956 7.260,13.962 C7.248,13.965 7.236,13.968 7.224,13.971 C7.224,13.974 7.224,13.977 7.224,13.980 C7.212,13.983 7.200,13.986 7.188,13.989 C7.188,13.992 7.188,13.995 7.188,13.998 C7.179,13.998 7.170,13.998 7.161,13.998 C7.161,14.001 7.161,14.004 7.161,14.007 C7.155,14.007 7.149,14.007 7.143,14.007 C7.143,14.010 7.143,14.013 7.143,14.016 C7.134,14.016 7.125,14.016 7.116,14.016 C7.116,14.019 7.116,14.022 7.116,14.025 C7.018,14.064 6.898,14.070 6.763,14.070 Z"/>
</svg>
